# Duskborn Stylized Chest Model
mtllib Chest.mtl
o Chest

v -0.40000 0.00000 -0.26000
v 0.40000 0.00000 -0.26000
v 0.40000 0.38000 -0.26000
v -0.40000 0.38000 -0.26000
v -0.40000 0.00000 0.26000
v 0.40000 0.00000 0.26000
v 0.40000 0.38000 0.26000
v -0.40000 0.38000 0.26000
v -0.41000 0.38000 -0.27000
v -0.41000 0.48332 -0.24945
v -0.41000 0.57092 -0.19092
v -0.41000 0.62945 -0.10332
v -0.41000 0.65000 0.00000
v -0.41000 0.62945 0.10332
v -0.41000 0.57092 0.19092
v -0.41000 0.48332 0.24945
v -0.41000 0.38000 0.27000
v 0.41000 0.38000 -0.27000
v 0.41000 0.48332 -0.24945
v 0.41000 0.57092 -0.19092
v 0.41000 0.62945 -0.10332
v 0.41000 0.65000 0.00000
v 0.41000 0.62945 0.10332
v 0.41000 0.57092 0.19092
v 0.41000 0.48332 0.24945
v 0.41000 0.38000 0.27000
v -0.41000 0.38000 0.00000
v 0.41000 0.38000 0.00000
v -0.41500 0.00000 -0.27500
v 0.41500 0.00000 -0.27500
v 0.41500 0.05000 -0.27500
v -0.41500 0.05000 -0.27500
v -0.41500 0.00000 0.27500
v 0.41500 0.00000 0.27500
v 0.41500 0.05000 0.27500
v -0.41500 0.05000 0.27500
v -0.41500 0.34000 -0.27500
v 0.41500 0.34000 -0.27500
v 0.41500 0.38000 -0.27500
v -0.41500 0.38000 -0.27500
v -0.41500 0.34000 0.27500
v 0.41500 0.34000 0.27500
v 0.41500 0.38000 0.27500
v -0.41500 0.38000 0.27500
v -0.41500 0.00000 -0.27500
v -0.36000 0.00000 -0.27500
v -0.36000 0.38000 -0.27500
v -0.41500 0.38000 -0.27500
v -0.41500 0.00000 -0.26300
v -0.36000 0.00000 -0.26300
v -0.36000 0.38000 -0.26300
v -0.41500 0.38000 -0.26300
v -0.41500 0.00000 -0.27500
v -0.40300 0.00000 -0.27500
v -0.40300 0.38000 -0.27500
v -0.41500 0.38000 -0.27500
v -0.41500 0.00000 -0.22000
v -0.40300 0.00000 -0.22000
v -0.40300 0.38000 -0.22000
v -0.41500 0.38000 -0.22000
v 0.36000 0.00000 -0.27500
v 0.41500 0.00000 -0.27500
v 0.41500 0.38000 -0.27500
v 0.36000 0.38000 -0.27500
v 0.36000 0.00000 -0.26300
v 0.41500 0.00000 -0.26300
v 0.41500 0.38000 -0.26300
v 0.36000 0.38000 -0.26300
v 0.40300 0.00000 -0.27500
v 0.41500 0.00000 -0.27500
v 0.41500 0.38000 -0.27500
v 0.40300 0.38000 -0.27500
v 0.40300 0.00000 -0.22000
v 0.41500 0.00000 -0.22000
v 0.41500 0.38000 -0.22000
v 0.40300 0.38000 -0.22000
v -0.41500 0.00000 0.26300
v -0.36000 0.00000 0.26300
v -0.36000 0.38000 0.26300
v -0.41500 0.38000 0.26300
v -0.41500 0.00000 0.27500
v -0.36000 0.00000 0.27500
v -0.36000 0.38000 0.27500
v -0.41500 0.38000 0.27500
v -0.41500 0.00000 0.22000
v -0.40300 0.00000 0.22000
v -0.40300 0.38000 0.22000
v -0.41500 0.38000 0.22000
v -0.41500 0.00000 0.27500
v -0.40300 0.00000 0.27500
v -0.40300 0.38000 0.27500
v -0.41500 0.38000 0.27500
v 0.36000 0.00000 0.26300
v 0.41500 0.00000 0.26300
v 0.41500 0.38000 0.26300
v 0.36000 0.38000 0.26300
v 0.36000 0.00000 0.27500
v 0.41500 0.00000 0.27500
v 0.41500 0.38000 0.27500
v 0.36000 0.38000 0.27500
v 0.40300 0.00000 0.22000
v 0.41500 0.00000 0.22000
v 0.41500 0.38000 0.22000
v 0.40300 0.38000 0.22000
v 0.40300 0.00000 0.27500
v 0.41500 0.00000 0.27500
v 0.41500 0.38000 0.27500
v 0.40300 0.38000 0.27500
v -0.21700 0.00000 -0.27500
v -0.16300 0.00000 -0.27500
v -0.16300 0.38000 -0.27500
v -0.21700 0.38000 -0.27500
v -0.21700 0.00000 -0.26000
v -0.16300 0.00000 -0.26000
v -0.16300 0.38000 -0.26000
v -0.21700 0.38000 -0.26000
v -0.21700 0.00000 0.26000
v -0.16300 0.00000 0.26000
v -0.16300 0.38000 0.26000
v -0.21700 0.38000 0.26000
v -0.21700 0.00000 0.27500
v -0.16300 0.00000 0.27500
v -0.16300 0.38000 0.27500
v -0.21700 0.38000 0.27500
v 0.16300 0.00000 -0.27500
v 0.21700 0.00000 -0.27500
v 0.21700 0.38000 -0.27500
v 0.16300 0.38000 -0.27500
v 0.16300 0.00000 -0.26000
v 0.21700 0.00000 -0.26000
v 0.21700 0.38000 -0.26000
v 0.16300 0.38000 -0.26000
v 0.16300 0.00000 0.26000
v 0.21700 0.00000 0.26000
v 0.21700 0.38000 0.26000
v 0.16300 0.38000 0.26000
v 0.16300 0.00000 0.27500
v 0.21700 0.00000 0.27500
v 0.21700 0.38000 0.27500
v 0.16300 0.38000 0.27500
v -0.42000 0.38000 -0.28500
v 0.42000 0.38000 -0.28500
v 0.42000 0.41000 -0.28500
v -0.42000 0.41000 -0.28500
v -0.42000 0.38000 0.28500
v 0.42000 0.38000 0.28500
v 0.42000 0.41000 0.28500
v -0.42000 0.41000 0.28500
v -0.21700 0.38000 -0.28500
v -0.21700 0.48906 -0.26331
v -0.21700 0.58153 -0.20153
v -0.21700 0.64331 -0.10906
v -0.21700 0.66500 0.00000
v -0.21700 0.64331 0.10906
v -0.21700 0.58153 0.20153
v -0.21700 0.48906 0.26331
v -0.21700 0.38000 0.28500
v -0.16300 0.38000 -0.28500
v -0.16300 0.48906 -0.26331
v -0.16300 0.58153 -0.20153
v -0.16300 0.64331 -0.10906
v -0.16300 0.66500 0.00000
v -0.16300 0.64331 0.10906
v -0.16300 0.58153 0.20153
v -0.16300 0.48906 0.26331
v -0.16300 0.38000 0.28500
v 0.16300 0.38000 -0.28500
v 0.16300 0.48906 -0.26331
v 0.16300 0.58153 -0.20153
v 0.16300 0.64331 -0.10906
v 0.16300 0.66500 0.00000
v 0.16300 0.64331 0.10906
v 0.16300 0.58153 0.20153
v 0.16300 0.48906 0.26331
v 0.16300 0.38000 0.28500
v 0.21700 0.38000 -0.28500
v 0.21700 0.48906 -0.26331
v 0.21700 0.58153 -0.20153
v 0.21700 0.64331 -0.10906
v 0.21700 0.66500 0.00000
v 0.21700 0.64331 0.10906
v 0.21700 0.58153 0.20153
v 0.21700 0.48906 0.26331
v 0.21700 0.38000 0.28500
v -0.42000 0.38000 -0.28200
v -0.42000 0.48792 -0.26053
v -0.42000 0.57940 -0.19940
v -0.42000 0.64053 -0.10792
v -0.42000 0.66200 0.00000
v -0.42000 0.64053 0.10792
v -0.42000 0.57940 0.19940
v -0.42000 0.48792 0.26053
v -0.42000 0.38000 0.28200
v -0.39500 0.38000 -0.28200
v -0.39500 0.48792 -0.26053
v -0.39500 0.57940 -0.19940
v -0.39500 0.64053 -0.10792
v -0.39500 0.66200 0.00000
v -0.39500 0.64053 0.10792
v -0.39500 0.57940 0.19940
v -0.39500 0.48792 0.26053
v -0.39500 0.38000 0.28200
v 0.39500 0.38000 -0.28200
v 0.39500 0.48792 -0.26053
v 0.39500 0.57940 -0.19940
v 0.39500 0.64053 -0.10792
v 0.39500 0.66200 0.00000
v 0.39500 0.64053 0.10792
v 0.39500 0.57940 0.19940
v 0.39500 0.48792 0.26053
v 0.39500 0.38000 0.28200
v 0.42000 0.38000 -0.28200
v 0.42000 0.48792 -0.26053
v 0.42000 0.57940 -0.19940
v 0.42000 0.64053 -0.10792
v 0.42000 0.66200 0.00000
v 0.42000 0.64053 0.10792
v 0.42000 0.57940 0.19940
v 0.42000 0.48792 0.26053
v 0.42000 0.38000 0.28200
v -0.22500 0.36500 0.26500
v -0.15500 0.36500 0.26500
v -0.15500 0.40500 0.26500
v -0.22500 0.40500 0.26500
v -0.22500 0.36500 0.29500
v -0.15500 0.36500 0.29500
v -0.15500 0.40500 0.29500
v -0.22500 0.40500 0.29500
v 0.15500 0.36500 0.26500
v 0.22500 0.36500 0.26500
v 0.22500 0.40500 0.26500
v 0.15500 0.40500 0.26500
v 0.15500 0.36500 0.29500
v 0.22500 0.36500 0.29500
v 0.22500 0.40500 0.29500
v 0.15500 0.40500 0.29500
v -0.42000 0.18000 -0.06000
v -0.40800 0.18000 -0.06000
v -0.40800 0.24000 -0.06000
v -0.42000 0.24000 -0.06000
v -0.42000 0.18000 0.06000
v -0.40800 0.18000 0.06000
v -0.40800 0.24000 0.06000
v -0.42000 0.24000 0.06000
v -0.47000 0.13000 -0.05000
v -0.45000 0.13000 -0.05000
v -0.45000 0.15000 -0.05000
v -0.47000 0.15000 -0.05000
v -0.47000 0.13000 0.05000
v -0.45000 0.13000 0.05000
v -0.45000 0.15000 0.05000
v -0.47000 0.15000 0.05000
v -0.46000 0.14000 -0.05000
v -0.42000 0.14000 -0.05000
v -0.42000 0.21000 -0.05000
v -0.46000 0.21000 -0.05000
v -0.46000 0.14000 -0.03500
v -0.42000 0.14000 -0.03500
v -0.42000 0.21000 -0.03500
v -0.46000 0.21000 -0.03500
v -0.46000 0.14000 0.03500
v -0.42000 0.14000 0.03500
v -0.42000 0.21000 0.03500
v -0.46000 0.21000 0.03500
v -0.46000 0.14000 0.05000
v -0.42000 0.14000 0.05000
v -0.42000 0.21000 0.05000
v -0.46000 0.21000 0.05000
v 0.40800 0.18000 -0.06000
v 0.42000 0.18000 -0.06000
v 0.42000 0.24000 -0.06000
v 0.40800 0.24000 -0.06000
v 0.40800 0.18000 0.06000
v 0.42000 0.18000 0.06000
v 0.42000 0.24000 0.06000
v 0.40800 0.24000 0.06000
v 0.45000 0.13000 -0.05000
v 0.47000 0.13000 -0.05000
v 0.47000 0.15000 -0.05000
v 0.45000 0.15000 -0.05000
v 0.45000 0.13000 0.05000
v 0.47000 0.13000 0.05000
v 0.47000 0.15000 0.05000
v 0.45000 0.15000 0.05000
v 0.42000 0.14000 -0.05000
v 0.46000 0.14000 -0.05000
v 0.46000 0.21000 -0.05000
v 0.42000 0.21000 -0.05000
v 0.42000 0.14000 -0.03500
v 0.46000 0.14000 -0.03500
v 0.46000 0.21000 -0.03500
v 0.42000 0.21000 -0.03500
v 0.42000 0.14000 0.03500
v 0.46000 0.14000 0.03500
v 0.46000 0.21000 0.03500
v 0.42000 0.21000 0.03500
v 0.42000 0.14000 0.05000
v 0.46000 0.14000 0.05000
v 0.46000 0.21000 0.05000
v 0.42000 0.21000 0.05000
v -0.04000 0.34000 -0.30000
v 0.04000 0.34000 -0.30000
v 0.04000 0.43000 -0.30000
v -0.04000 0.43000 -0.30000
v -0.04000 0.34000 -0.28000
v 0.04000 0.34000 -0.28000
v 0.04000 0.43000 -0.28000
v -0.04000 0.43000 -0.28000
v -0.06500 0.24000 -0.29500
v 0.06500 0.24000 -0.29500
v 0.06500 0.35000 -0.29500
v -0.06500 0.35000 -0.29500
v -0.06500 0.24000 -0.28000
v 0.06500 0.24000 -0.28000
v 0.06500 0.35000 -0.28000
v -0.06500 0.35000 -0.28000
v -0.03500 0.27000 -0.31500
v 0.03500 0.27000 -0.31500
v 0.03500 0.33000 -0.31500
v -0.03500 0.33000 -0.31500
v -0.03500 0.27000 -0.29500
v 0.03500 0.27000 -0.29500
v 0.03500 0.33000 -0.29500
v -0.03500 0.33000 -0.29500
v -0.00800 0.28500 -0.31800
v 0.00800 0.28500 -0.31800
v 0.00800 0.31500 -0.31800
v -0.00800 0.31500 -0.31800
v -0.00800 0.28500 -0.31200
v 0.00800 0.28500 -0.31200
v 0.00800 0.31500 -0.31200
v -0.00800 0.31500 -0.31200
v -0.20200 0.01800 -0.28500
v -0.17800 0.01800 -0.28500
v -0.17800 0.04200 -0.28500
v -0.20200 0.04200 -0.28500
v -0.20200 0.01800 -0.27500
v -0.17800 0.01800 -0.27500
v -0.17800 0.04200 -0.27500
v -0.20200 0.04200 -0.27500
v -0.20200 0.16800 -0.28500
v -0.17800 0.16800 -0.28500
v -0.17800 0.19200 -0.28500
v -0.20200 0.19200 -0.28500
v -0.20200 0.16800 -0.27500
v -0.17800 0.16800 -0.27500
v -0.17800 0.19200 -0.27500
v -0.20200 0.19200 -0.27500
v -0.20200 0.34800 -0.28500
v -0.17800 0.34800 -0.28500
v -0.17800 0.37200 -0.28500
v -0.20200 0.37200 -0.28500
v -0.20200 0.34800 -0.27500
v -0.17800 0.34800 -0.27500
v -0.17800 0.37200 -0.27500
v -0.20200 0.37200 -0.27500
v -0.20200 0.01800 0.27500
v -0.17800 0.01800 0.27500
v -0.17800 0.04200 0.27500
v -0.20200 0.04200 0.27500
v -0.20200 0.01800 0.28500
v -0.17800 0.01800 0.28500
v -0.17800 0.04200 0.28500
v -0.20200 0.04200 0.28500
v -0.20200 0.16800 0.27500
v -0.17800 0.16800 0.27500
v -0.17800 0.19200 0.27500
v -0.20200 0.19200 0.27500
v -0.20200 0.16800 0.28500
v -0.17800 0.16800 0.28500
v -0.17800 0.19200 0.28500
v -0.20200 0.19200 0.28500
v -0.20200 0.34800 0.27500
v -0.17800 0.34800 0.27500
v -0.17800 0.37200 0.27500
v -0.20200 0.37200 0.27500
v -0.20200 0.34800 0.28500
v -0.17800 0.34800 0.28500
v -0.17800 0.37200 0.28500
v -0.20200 0.37200 0.28500
v 0.17800 0.01800 -0.28500
v 0.20200 0.01800 -0.28500
v 0.20200 0.04200 -0.28500
v 0.17800 0.04200 -0.28500
v 0.17800 0.01800 -0.27500
v 0.20200 0.01800 -0.27500
v 0.20200 0.04200 -0.27500
v 0.17800 0.04200 -0.27500
v 0.17800 0.16800 -0.28500
v 0.20200 0.16800 -0.28500
v 0.20200 0.19200 -0.28500
v 0.17800 0.19200 -0.28500
v 0.17800 0.16800 -0.27500
v 0.20200 0.16800 -0.27500
v 0.20200 0.19200 -0.27500
v 0.17800 0.19200 -0.27500
v 0.17800 0.34800 -0.28500
v 0.20200 0.34800 -0.28500
v 0.20200 0.37200 -0.28500
v 0.17800 0.37200 -0.28500
v 0.17800 0.34800 -0.27500
v 0.20200 0.34800 -0.27500
v 0.20200 0.37200 -0.27500
v 0.17800 0.37200 -0.27500
v 0.17800 0.01800 0.27500
v 0.20200 0.01800 0.27500
v 0.20200 0.04200 0.27500
v 0.17800 0.04200 0.27500
v 0.17800 0.01800 0.28500
v 0.20200 0.01800 0.28500
v 0.20200 0.04200 0.28500
v 0.17800 0.04200 0.28500
v 0.17800 0.16800 0.27500
v 0.20200 0.16800 0.27500
v 0.20200 0.19200 0.27500
v 0.17800 0.19200 0.27500
v 0.17800 0.16800 0.28500
v 0.20200 0.16800 0.28500
v 0.20200 0.19200 0.28500
v 0.17800 0.19200 0.28500
v 0.17800 0.34800 0.27500
v 0.20200 0.34800 0.27500
v 0.20200 0.37200 0.27500
v 0.17800 0.37200 0.27500
v 0.17800 0.34800 0.28500
v 0.20200 0.34800 0.28500
v 0.20200 0.37200 0.28500
v 0.17800 0.37200 0.28500
v -0.40200 0.01800 -0.28500
v -0.37800 0.01800 -0.28500
v -0.37800 0.04200 -0.28500
v -0.40200 0.04200 -0.28500
v -0.40200 0.01800 -0.27500
v -0.37800 0.01800 -0.27500
v -0.37800 0.04200 -0.27500
v -0.40200 0.04200 -0.27500
v -0.40200 0.34800 -0.28500
v -0.37800 0.34800 -0.28500
v -0.37800 0.37200 -0.28500
v -0.40200 0.37200 -0.28500
v -0.40200 0.34800 -0.27500
v -0.37800 0.34800 -0.27500
v -0.37800 0.37200 -0.27500
v -0.40200 0.37200 -0.27500
v -0.40200 0.01800 0.27500
v -0.37800 0.01800 0.27500
v -0.37800 0.04200 0.27500
v -0.40200 0.04200 0.27500
v -0.40200 0.01800 0.28500
v -0.37800 0.01800 0.28500
v -0.37800 0.04200 0.28500
v -0.40200 0.04200 0.28500
v -0.40200 0.34800 0.27500
v -0.37800 0.34800 0.27500
v -0.37800 0.37200 0.27500
v -0.40200 0.37200 0.27500
v -0.40200 0.34800 0.28500
v -0.37800 0.34800 0.28500
v -0.37800 0.37200 0.28500
v -0.40200 0.37200 0.28500
v 0.37800 0.01800 -0.28500
v 0.40200 0.01800 -0.28500
v 0.40200 0.04200 -0.28500
v 0.37800 0.04200 -0.28500
v 0.37800 0.01800 -0.27500
v 0.40200 0.01800 -0.27500
v 0.40200 0.04200 -0.27500
v 0.37800 0.04200 -0.27500
v 0.37800 0.34800 -0.28500
v 0.40200 0.34800 -0.28500
v 0.40200 0.37200 -0.28500
v 0.37800 0.37200 -0.28500
v 0.37800 0.34800 -0.27500
v 0.40200 0.34800 -0.27500
v 0.40200 0.37200 -0.27500
v 0.37800 0.37200 -0.27500
v 0.37800 0.01800 0.27500
v 0.40200 0.01800 0.27500
v 0.40200 0.04200 0.27500
v 0.37800 0.04200 0.27500
v 0.37800 0.01800 0.28500
v 0.40200 0.01800 0.28500
v 0.40200 0.04200 0.28500
v 0.37800 0.04200 0.28500
v 0.37800 0.34800 0.27500
v 0.40200 0.34800 0.27500
v 0.40200 0.37200 0.27500
v 0.37800 0.37200 0.27500
v 0.37800 0.34800 0.28500
v 0.40200 0.34800 0.28500
v 0.40200 0.37200 0.28500
v 0.37800 0.37200 0.28500

vt 0.00000 0.00000
vt 1.00000 0.00000
vt 1.00000 1.00000
vt 0.00000 1.00000
vt 0.00000 0.00000
vt 1.00000 0.00000
vt 1.00000 1.00000
vt 0.00000 1.00000
vt 0.00000 0.00000
vt 1.00000 0.00000
vt 1.00000 1.00000
vt 0.00000 1.00000
vt 0.00000 0.00000
vt 1.00000 0.00000
vt 1.00000 1.00000
vt 0.00000 1.00000
vt 0.00000 0.00000
vt 1.00000 0.00000
vt 1.00000 1.00000
vt 0.00000 1.00000
vt 0.00000 0.00000
vt 1.00000 0.00000
vt 1.00000 1.00000
vt 0.00000 1.00000
vt 0.00000 0.00000
vt 1.00000 0.00000
vt 1.00000 1.00000
vt 0.00000 1.00000
vt 0.00000 0.00000
vt 1.00000 0.00000
vt 1.00000 1.00000
vt 0.00000 1.00000
vt 0.00000 0.00000
vt 1.00000 0.00000
vt 1.00000 1.00000
vt 0.00000 1.00000
vt 0.00000 0.00000
vt 1.00000 0.00000
vt 1.00000 1.00000
vt 0.00000 1.00000
vt 0.00000 0.00000
vt 1.00000 0.00000
vt 1.00000 1.00000
vt 0.00000 1.00000
vt 0.00000 0.00000
vt 1.00000 0.00000
vt 1.00000 1.00000
vt 0.00000 1.00000
vt 0.00000 0.00000
vt 1.00000 0.00000
vt 1.00000 1.00000
vt 0.00000 1.00000
vt 0.00000 0.00000
vt 1.00000 0.00000
vt 1.00000 1.00000
vt 0.00000 1.00000
vt 0.00000 0.00000
vt 1.00000 0.00000
vt 1.00000 1.00000
vt 0.00000 1.00000
vt 0.00000 0.00000
vt 1.00000 0.00000
vt 1.00000 1.00000
vt 0.00000 1.00000
vt 0.00000 0.00000
vt 1.00000 0.00000
vt 1.00000 1.00000
vt 0.00000 1.00000
vt 0.00000 0.00000
vt 1.00000 0.00000
vt 1.00000 1.00000
vt 0.00000 1.00000
vt 0.00000 0.00000
vt 1.00000 0.00000
vt 1.00000 1.00000
vt 0.00000 1.00000
vt 0.00000 0.00000
vt 1.00000 0.00000
vt 1.00000 1.00000
vt 0.00000 1.00000
vt 0.00000 0.00000
vt 1.00000 0.00000
vt 1.00000 1.00000
vt 0.00000 1.00000
vt 0.00000 0.00000
vt 1.00000 0.00000
vt 1.00000 1.00000
vt 0.00000 1.00000
vt 0.00000 0.00000
vt 1.00000 0.00000
vt 1.00000 1.00000
vt 0.00000 1.00000
vt 0.00000 0.00000
vt 1.00000 0.00000
vt 1.00000 1.00000
vt 0.00000 1.00000
vt 0.00000 0.00000
vt 1.00000 0.00000
vt 1.00000 1.00000
vt 0.00000 1.00000
vt 0.00000 0.00000
vt 1.00000 0.00000
vt 1.00000 1.00000
vt 0.00000 1.00000
vt 0.00000 0.00000
vt 1.00000 0.00000
vt 1.00000 1.00000
vt 0.00000 1.00000
vt 0.00000 0.00000
vt 1.00000 0.00000
vt 1.00000 1.00000
vt 0.00000 1.00000
vt 0.00000 0.00000
vt 1.00000 0.00000
vt 1.00000 1.00000
vt 0.00000 1.00000
vt 0.00000 0.00000
vt 1.00000 0.00000
vt 1.00000 1.00000
vt 0.00000 1.00000
vt 0.00000 0.00000
vt 1.00000 0.00000
vt 1.00000 1.00000
vt 0.00000 1.00000
vt 0.00000 0.00000
vt 1.00000 0.00000
vt 1.00000 1.00000
vt 0.00000 1.00000
vt 0.00000 0.00000
vt 1.00000 0.00000
vt 1.00000 1.00000
vt 0.00000 1.00000
vt 0.00000 0.00000
vt 1.00000 0.00000
vt 1.00000 1.00000
vt 0.00000 1.00000
vt 0.00000 0.00000
vt 1.00000 0.00000
vt 1.00000 1.00000
vt 0.00000 1.00000
vt 0.00000 0.00000
vt 1.00000 0.00000
vt 1.00000 1.00000
vt 0.00000 1.00000
vt 0.00000 0.00000
vt 1.00000 0.00000
vt 1.00000 1.00000
vt 0.00000 1.00000
vt 0.00000 0.00000
vt 1.00000 0.00000
vt 1.00000 1.00000
vt 0.00000 1.00000
vt 0.00000 0.00000
vt 1.00000 0.00000
vt 1.00000 1.00000
vt 0.00000 1.00000
vt 0.00000 0.00000
vt 1.00000 0.00000
vt 1.00000 1.00000
vt 0.00000 1.00000
vt 0.00000 0.00000
vt 1.00000 0.00000
vt 1.00000 1.00000
vt 0.00000 1.00000
vt 0.00000 0.00000
vt 1.00000 0.00000
vt 1.00000 1.00000
vt 0.00000 1.00000
vt 0.00000 0.00000
vt 1.00000 0.00000
vt 1.00000 1.00000
vt 0.00000 1.00000
vt 0.00000 0.00000
vt 1.00000 0.00000
vt 1.00000 1.00000
vt 0.00000 1.00000
vt 0.00000 0.00000
vt 1.00000 0.00000
vt 1.00000 1.00000
vt 0.00000 1.00000
vt 0.00000 0.00000
vt 1.00000 0.00000
vt 1.00000 1.00000
vt 0.00000 1.00000
vt 0.00000 0.00000
vt 1.00000 0.00000
vt 1.00000 1.00000
vt 0.00000 1.00000
vt 0.00000 0.00000
vt 1.00000 0.00000
vt 1.00000 1.00000
vt 0.00000 1.00000
vt 0.00000 0.00000
vt 1.00000 0.00000
vt 1.00000 1.00000
vt 0.00000 1.00000
vt 0.00000 0.00000
vt 1.00000 0.00000
vt 1.00000 1.00000
vt 0.00000 1.00000
vt 0.00000 0.00000
vt 1.00000 0.00000
vt 1.00000 1.00000
vt 0.00000 1.00000

vn 0.00000 0.00000 -1.00000
vn 0.00000 0.00000 1.00000
vn -1.00000 0.00000 0.00000
vn 1.00000 0.00000 0.00000
vn 0.00000 -1.00000 0.00000
vn 0.00000 1.00000 0.00000
vn 0.00000 0.19509 -0.98079
vn 0.00000 0.55557 -0.83147
vn 0.00000 0.83147 -0.55557
vn 0.00000 0.98079 -0.19509
vn 0.00000 0.98079 0.19509
vn 0.00000 0.83147 0.55557
vn 0.00000 0.55557 0.83147
vn 0.00000 0.19509 0.98079
vn -1.00000 0.00000 0.00000
vn 1.00000 0.00000 0.00000
vn 0.00000 0.00000 -1.00000
vn 0.00000 0.00000 1.00000
vn -1.00000 0.00000 0.00000
vn 1.00000 0.00000 0.00000
vn 0.00000 -1.00000 0.00000
vn 0.00000 1.00000 0.00000
vn 0.00000 0.00000 -1.00000
vn 0.00000 0.00000 1.00000
vn -1.00000 0.00000 0.00000
vn 1.00000 0.00000 0.00000
vn 0.00000 -1.00000 0.00000
vn 0.00000 1.00000 0.00000
vn 0.00000 0.00000 -1.00000
vn 0.00000 0.00000 1.00000
vn -1.00000 0.00000 0.00000
vn 1.00000 0.00000 0.00000
vn 0.00000 -1.00000 0.00000
vn 0.00000 1.00000 0.00000
vn 0.00000 0.00000 -1.00000
vn 0.00000 0.00000 1.00000
vn -1.00000 0.00000 0.00000
vn 1.00000 0.00000 0.00000
vn 0.00000 -1.00000 0.00000
vn 0.00000 1.00000 0.00000
vn 0.00000 0.00000 -1.00000
vn 0.00000 0.00000 1.00000
vn -1.00000 0.00000 0.00000
vn 1.00000 0.00000 0.00000
vn 0.00000 -1.00000 0.00000
vn 0.00000 1.00000 0.00000
vn 0.00000 0.00000 -1.00000
vn 0.00000 0.00000 1.00000
vn -1.00000 0.00000 0.00000
vn 1.00000 0.00000 0.00000
vn 0.00000 -1.00000 0.00000
vn 0.00000 1.00000 0.00000
vn 0.00000 0.00000 -1.00000
vn 0.00000 0.00000 1.00000
vn -1.00000 0.00000 0.00000
vn 1.00000 0.00000 0.00000
vn 0.00000 -1.00000 0.00000
vn 0.00000 1.00000 0.00000
vn 0.00000 0.00000 -1.00000
vn 0.00000 0.00000 1.00000
vn -1.00000 0.00000 0.00000
vn 1.00000 0.00000 0.00000
vn 0.00000 -1.00000 0.00000
vn 0.00000 1.00000 0.00000
vn 0.00000 0.00000 -1.00000
vn 0.00000 0.00000 1.00000
vn -1.00000 0.00000 0.00000
vn 1.00000 0.00000 0.00000
vn 0.00000 -1.00000 0.00000
vn 0.00000 1.00000 0.00000
vn 0.00000 0.00000 -1.00000
vn 0.00000 0.00000 1.00000
vn -1.00000 0.00000 0.00000
vn 1.00000 0.00000 0.00000
vn 0.00000 -1.00000 0.00000
vn 0.00000 1.00000 0.00000
vn 0.00000 0.00000 -1.00000
vn 0.00000 0.00000 1.00000
vn -1.00000 0.00000 0.00000
vn 1.00000 0.00000 0.00000
vn 0.00000 -1.00000 0.00000
vn 0.00000 1.00000 0.00000
vn 0.00000 0.00000 -1.00000
vn 0.00000 0.00000 1.00000
vn -1.00000 0.00000 0.00000
vn 1.00000 0.00000 0.00000
vn 0.00000 -1.00000 0.00000
vn 0.00000 1.00000 0.00000
vn 0.00000 0.00000 -1.00000
vn 0.00000 0.00000 1.00000
vn -1.00000 0.00000 0.00000
vn 1.00000 0.00000 0.00000
vn 0.00000 -1.00000 0.00000
vn 0.00000 1.00000 0.00000
vn 0.00000 0.00000 -1.00000
vn 0.00000 0.00000 1.00000
vn -1.00000 0.00000 0.00000
vn 1.00000 0.00000 0.00000
vn 0.00000 -1.00000 0.00000
vn 0.00000 1.00000 0.00000
vn 0.00000 0.00000 -1.00000
vn 0.00000 0.00000 1.00000
vn -1.00000 0.00000 0.00000
vn 1.00000 0.00000 0.00000
vn 0.00000 -1.00000 0.00000
vn 0.00000 1.00000 0.00000
vn 0.00000 0.19509 -0.98079
vn 0.00000 0.55557 -0.83147
vn 0.00000 0.83147 -0.55557
vn 0.00000 0.98079 -0.19509
vn 0.00000 0.98079 0.19509
vn 0.00000 0.83147 0.55557
vn 0.00000 0.55557 0.83147
vn 0.00000 0.19509 0.98079
vn 0.00000 0.19509 -0.98079
vn 0.00000 0.55557 -0.83147
vn 0.00000 0.83147 -0.55557
vn 0.00000 0.98079 -0.19509
vn 0.00000 0.98079 0.19509
vn 0.00000 0.83147 0.55557
vn 0.00000 0.55557 0.83147
vn 0.00000 0.19509 0.98079
vn 0.00000 0.19509 -0.98079
vn 0.00000 0.55557 -0.83147
vn 0.00000 0.83147 -0.55557
vn 0.00000 0.98079 -0.19509
vn 0.00000 0.98079 0.19509
vn 0.00000 0.83147 0.55557
vn 0.00000 0.55557 0.83147
vn 0.00000 0.19509 0.98079
vn 0.00000 0.19509 -0.98079
vn 0.00000 0.55557 -0.83147
vn 0.00000 0.83147 -0.55557
vn 0.00000 0.98079 -0.19509
vn 0.00000 0.98079 0.19509
vn 0.00000 0.83147 0.55557
vn 0.00000 0.55557 0.83147
vn 0.00000 0.19509 0.98079
vn 0.00000 0.00000 -1.00000
vn 0.00000 0.00000 1.00000
vn -1.00000 0.00000 0.00000
vn 1.00000 0.00000 0.00000
vn 0.00000 -1.00000 0.00000
vn 0.00000 1.00000 0.00000
vn 0.00000 0.00000 -1.00000
vn 0.00000 0.00000 1.00000
vn -1.00000 0.00000 0.00000
vn 1.00000 0.00000 0.00000
vn 0.00000 -1.00000 0.00000
vn 0.00000 1.00000 0.00000
vn 0.00000 0.00000 -1.00000
vn 0.00000 0.00000 1.00000
vn -1.00000 0.00000 0.00000
vn 1.00000 0.00000 0.00000
vn 0.00000 -1.00000 0.00000
vn 0.00000 1.00000 0.00000
vn 0.00000 0.00000 -1.00000
vn 0.00000 0.00000 1.00000
vn -1.00000 0.00000 0.00000
vn 1.00000 0.00000 0.00000
vn 0.00000 -1.00000 0.00000
vn 0.00000 1.00000 0.00000
vn 0.00000 0.00000 -1.00000
vn 0.00000 0.00000 1.00000
vn -1.00000 0.00000 0.00000
vn 1.00000 0.00000 0.00000
vn 0.00000 -1.00000 0.00000
vn 0.00000 1.00000 0.00000
vn 0.00000 0.00000 -1.00000
vn 0.00000 0.00000 1.00000
vn -1.00000 0.00000 0.00000
vn 1.00000 0.00000 0.00000
vn 0.00000 -1.00000 0.00000
vn 0.00000 1.00000 0.00000
vn 0.00000 0.00000 -1.00000
vn 0.00000 0.00000 1.00000
vn -1.00000 0.00000 0.00000
vn 1.00000 0.00000 0.00000
vn 0.00000 -1.00000 0.00000
vn 0.00000 1.00000 0.00000
vn 0.00000 0.00000 -1.00000
vn 0.00000 0.00000 1.00000
vn -1.00000 0.00000 0.00000
vn 1.00000 0.00000 0.00000
vn 0.00000 -1.00000 0.00000
vn 0.00000 1.00000 0.00000
vn 0.00000 0.00000 -1.00000
vn 0.00000 0.00000 1.00000
vn -1.00000 0.00000 0.00000
vn 1.00000 0.00000 0.00000
vn 0.00000 -1.00000 0.00000
vn 0.00000 1.00000 0.00000
vn 0.00000 0.00000 -1.00000
vn 0.00000 0.00000 1.00000
vn -1.00000 0.00000 0.00000
vn 1.00000 0.00000 0.00000
vn 0.00000 -1.00000 0.00000
vn 0.00000 1.00000 0.00000
vn 0.00000 0.00000 -1.00000
vn 0.00000 0.00000 1.00000
vn -1.00000 0.00000 0.00000
vn 1.00000 0.00000 0.00000
vn 0.00000 -1.00000 0.00000
vn 0.00000 1.00000 0.00000
vn 0.00000 0.00000 -1.00000
vn 0.00000 0.00000 1.00000
vn -1.00000 0.00000 0.00000
vn 1.00000 0.00000 0.00000
vn 0.00000 -1.00000 0.00000
vn 0.00000 1.00000 0.00000
vn 0.00000 0.00000 -1.00000
vn 0.00000 0.00000 1.00000
vn -1.00000 0.00000 0.00000
vn 1.00000 0.00000 0.00000
vn 0.00000 -1.00000 0.00000
vn 0.00000 1.00000 0.00000
vn 0.00000 0.00000 -1.00000
vn 0.00000 0.00000 1.00000
vn -1.00000 0.00000 0.00000
vn 1.00000 0.00000 0.00000
vn 0.00000 -1.00000 0.00000
vn 0.00000 1.00000 0.00000
vn 0.00000 0.00000 -1.00000
vn 0.00000 0.00000 1.00000
vn -1.00000 0.00000 0.00000
vn 1.00000 0.00000 0.00000
vn 0.00000 -1.00000 0.00000
vn 0.00000 1.00000 0.00000
vn 0.00000 0.00000 -1.00000
vn 0.00000 0.00000 1.00000
vn -1.00000 0.00000 0.00000
vn 1.00000 0.00000 0.00000
vn 0.00000 -1.00000 0.00000
vn 0.00000 1.00000 0.00000
vn 0.00000 0.00000 -1.00000
vn 0.00000 0.00000 1.00000
vn -1.00000 0.00000 0.00000
vn 1.00000 0.00000 0.00000
vn 0.00000 -1.00000 0.00000
vn 0.00000 1.00000 0.00000
vn 0.00000 0.00000 -1.00000
vn 0.00000 0.00000 1.00000
vn -1.00000 0.00000 0.00000
vn 1.00000 0.00000 0.00000
vn 0.00000 -1.00000 0.00000
vn 0.00000 1.00000 0.00000
vn 0.00000 0.00000 -1.00000
vn 0.00000 0.00000 1.00000
vn -1.00000 0.00000 0.00000
vn 1.00000 0.00000 0.00000
vn 0.00000 -1.00000 0.00000
vn 0.00000 1.00000 0.00000
vn 0.00000 0.00000 -1.00000
vn 0.00000 0.00000 1.00000
vn -1.00000 0.00000 0.00000
vn 1.00000 0.00000 0.00000
vn 0.00000 -1.00000 0.00000
vn 0.00000 1.00000 0.00000
vn 0.00000 0.00000 -1.00000
vn 0.00000 0.00000 1.00000
vn -1.00000 0.00000 0.00000
vn 1.00000 0.00000 0.00000
vn 0.00000 -1.00000 0.00000
vn 0.00000 1.00000 0.00000
vn 0.00000 0.00000 -1.00000
vn 0.00000 0.00000 1.00000
vn -1.00000 0.00000 0.00000
vn 1.00000 0.00000 0.00000
vn 0.00000 -1.00000 0.00000
vn 0.00000 1.00000 0.00000
vn 0.00000 0.00000 -1.00000
vn 0.00000 0.00000 1.00000
vn -1.00000 0.00000 0.00000
vn 1.00000 0.00000 0.00000
vn 0.00000 -1.00000 0.00000
vn 0.00000 1.00000 0.00000
vn 0.00000 0.00000 -1.00000
vn 0.00000 0.00000 1.00000
vn -1.00000 0.00000 0.00000
vn 1.00000 0.00000 0.00000
vn 0.00000 -1.00000 0.00000
vn 0.00000 1.00000 0.00000
vn 0.00000 0.00000 -1.00000
vn 0.00000 0.00000 1.00000
vn -1.00000 0.00000 0.00000
vn 1.00000 0.00000 0.00000
vn 0.00000 -1.00000 0.00000
vn 0.00000 1.00000 0.00000
vn 0.00000 0.00000 -1.00000
vn 0.00000 0.00000 1.00000
vn -1.00000 0.00000 0.00000
vn 1.00000 0.00000 0.00000
vn 0.00000 -1.00000 0.00000
vn 0.00000 1.00000 0.00000
vn 0.00000 0.00000 -1.00000
vn 0.00000 0.00000 1.00000
vn -1.00000 0.00000 0.00000
vn 1.00000 0.00000 0.00000
vn 0.00000 -1.00000 0.00000
vn 0.00000 1.00000 0.00000
vn 0.00000 0.00000 -1.00000
vn 0.00000 0.00000 1.00000
vn -1.00000 0.00000 0.00000
vn 1.00000 0.00000 0.00000
vn 0.00000 -1.00000 0.00000
vn 0.00000 1.00000 0.00000
vn 0.00000 0.00000 -1.00000
vn 0.00000 0.00000 1.00000
vn -1.00000 0.00000 0.00000
vn 1.00000 0.00000 0.00000
vn 0.00000 -1.00000 0.00000
vn 0.00000 1.00000 0.00000
vn 0.00000 0.00000 -1.00000
vn 0.00000 0.00000 1.00000
vn -1.00000 0.00000 0.00000
vn 1.00000 0.00000 0.00000
vn 0.00000 -1.00000 0.00000
vn 0.00000 1.00000 0.00000
vn 0.00000 0.00000 -1.00000
vn 0.00000 0.00000 1.00000
vn -1.00000 0.00000 0.00000
vn 1.00000 0.00000 0.00000
vn 0.00000 -1.00000 0.00000
vn 0.00000 1.00000 0.00000
vn 0.00000 0.00000 -1.00000
vn 0.00000 0.00000 1.00000
vn -1.00000 0.00000 0.00000
vn 1.00000 0.00000 0.00000
vn 0.00000 -1.00000 0.00000
vn 0.00000 1.00000 0.00000
vn 0.00000 0.00000 -1.00000
vn 0.00000 0.00000 1.00000
vn -1.00000 0.00000 0.00000
vn 1.00000 0.00000 0.00000
vn 0.00000 -1.00000 0.00000
vn 0.00000 1.00000 0.00000
vn 0.00000 0.00000 -1.00000
vn 0.00000 0.00000 1.00000
vn -1.00000 0.00000 0.00000
vn 1.00000 0.00000 0.00000
vn 0.00000 -1.00000 0.00000
vn 0.00000 1.00000 0.00000

g Wood
usemtl Wood
s 1
f 1/1/1 4/4/1 3/3/1
f 1/1/1 3/3/1 2/2/1
f 6/1/2 7/4/2 8/3/2
f 6/1/2 8/3/2 5/2/2
f 5/1/3 8/4/3 4/3/3
f 5/1/3 4/3/3 1/2/3
f 2/1/4 3/4/4 7/3/4
f 2/1/4 7/3/4 6/2/4
f 5/1/5 1/4/5 2/3/5
f 5/1/5 2/3/5 6/2/5
f 4/1/6 8/4/6 7/3/6
f 4/1/6 7/3/6 3/2/6
f 9/5/7 10/8/7 19/7/7
f 9/5/7 19/7/7 18/6/7
f 10/5/8 11/8/8 20/7/8
f 10/5/8 20/7/8 19/6/8
f 11/5/9 12/8/9 21/7/9
f 11/5/9 21/7/9 20/6/9
f 12/5/10 13/8/10 22/7/10
f 12/5/10 22/7/10 21/6/10
f 13/5/11 14/8/11 23/7/11
f 13/5/11 23/7/11 22/6/11
f 14/5/12 15/8/12 24/7/12
f 14/5/12 24/7/12 23/6/12
f 15/5/13 16/8/13 25/7/13
f 15/5/13 25/7/13 24/6/13
f 16/5/14 17/8/14 26/7/14
f 16/5/14 26/7/14 25/6/14
f 27/5/15 10/6/15 9/7/15
f 28/5/16 18/6/16 19/7/16
f 27/5/15 11/6/15 10/7/15
f 28/5/16 19/6/16 20/7/16
f 27/5/15 12/6/15 11/7/15
f 28/5/16 20/6/16 21/7/16
f 27/5/15 13/6/15 12/7/15
f 28/5/16 21/6/16 22/7/16
f 27/5/15 14/6/15 13/7/15
f 28/5/16 22/6/16 23/7/16
f 27/5/15 15/6/15 14/7/15
f 28/5/16 23/6/16 24/7/16
f 27/5/15 16/6/15 15/7/15
f 28/5/16 24/6/16 25/7/16
f 27/5/15 17/6/15 16/7/15
f 28/5/16 25/6/16 26/7/16

g Iron
usemtl Iron
s 1
f 29/9/17 32/12/17 31/11/17
f 29/9/17 31/11/17 30/10/17
f 34/9/18 35/12/18 36/11/18
f 34/9/18 36/11/18 33/10/18
f 33/9/19 36/12/19 32/11/19
f 33/9/19 32/11/19 29/10/19
f 30/9/20 31/12/20 35/11/20
f 30/9/20 35/11/20 34/10/20
f 33/9/21 29/12/21 30/11/21
f 33/9/21 30/11/21 34/10/21
f 32/9/22 36/12/22 35/11/22
f 32/9/22 35/11/22 31/10/22
f 37/13/23 40/16/23 39/15/23
f 37/13/23 39/15/23 38/14/23
f 42/13/24 43/16/24 44/15/24
f 42/13/24 44/15/24 41/14/24
f 41/13/25 44/16/25 40/15/25
f 41/13/25 40/15/25 37/14/25
f 38/13/26 39/16/26 43/15/26
f 38/13/26 43/15/26 42/14/26
f 41/13/27 37/16/27 38/15/27
f 41/13/27 38/15/27 42/14/27
f 40/13/28 44/16/28 43/15/28
f 40/13/28 43/15/28 39/14/28
f 45/17/29 48/20/29 47/19/29
f 45/17/29 47/19/29 46/18/29
f 50/17/30 51/20/30 52/19/30
f 50/17/30 52/19/30 49/18/30
f 49/17/31 52/20/31 48/19/31
f 49/17/31 48/19/31 45/18/31
f 46/17/32 47/20/32 51/19/32
f 46/17/32 51/19/32 50/18/32
f 49/17/33 45/20/33 46/19/33
f 49/17/33 46/19/33 50/18/33
f 48/17/34 52/20/34 51/19/34
f 48/17/34 51/19/34 47/18/34
f 53/21/35 56/24/35 55/23/35
f 53/21/35 55/23/35 54/22/35
f 58/21/36 59/24/36 60/23/36
f 58/21/36 60/23/36 57/22/36
f 57/21/37 60/24/37 56/23/37
f 57/21/37 56/23/37 53/22/37
f 54/21/38 55/24/38 59/23/38
f 54/21/38 59/23/38 58/22/38
f 57/21/39 53/24/39 54/23/39
f 57/21/39 54/23/39 58/22/39
f 56/21/40 60/24/40 59/23/40
f 56/21/40 59/23/40 55/22/40
f 61/25/41 64/28/41 63/27/41
f 61/25/41 63/27/41 62/26/41
f 66/25/42 67/28/42 68/27/42
f 66/25/42 68/27/42 65/26/42
f 65/25/43 68/28/43 64/27/43
f 65/25/43 64/27/43 61/26/43
f 62/25/44 63/28/44 67/27/44
f 62/25/44 67/27/44 66/26/44
f 65/25/45 61/28/45 62/27/45
f 65/25/45 62/27/45 66/26/45
f 64/25/46 68/28/46 67/27/46
f 64/25/46 67/27/46 63/26/46
f 69/29/47 72/32/47 71/31/47
f 69/29/47 71/31/47 70/30/47
f 74/29/48 75/32/48 76/31/48
f 74/29/48 76/31/48 73/30/48
f 73/29/49 76/32/49 72/31/49
f 73/29/49 72/31/49 69/30/49
f 70/29/50 71/32/50 75/31/50
f 70/29/50 75/31/50 74/30/50
f 73/29/51 69/32/51 70/31/51
f 73/29/51 70/31/51 74/30/51
f 72/29/52 76/32/52 75/31/52
f 72/29/52 75/31/52 71/30/52
f 77/33/53 80/36/53 79/35/53
f 77/33/53 79/35/53 78/34/53
f 82/33/54 83/36/54 84/35/54
f 82/33/54 84/35/54 81/34/54
f 81/33/55 84/36/55 80/35/55
f 81/33/55 80/35/55 77/34/55
f 78/33/56 79/36/56 83/35/56
f 78/33/56 83/35/56 82/34/56
f 81/33/57 77/36/57 78/35/57
f 81/33/57 78/35/57 82/34/57
f 80/33/58 84/36/58 83/35/58
f 80/33/58 83/35/58 79/34/58
f 85/37/59 88/40/59 87/39/59
f 85/37/59 87/39/59 86/38/59
f 90/37/60 91/40/60 92/39/60
f 90/37/60 92/39/60 89/38/60
f 89/37/61 92/40/61 88/39/61
f 89/37/61 88/39/61 85/38/61
f 86/37/62 87/40/62 91/39/62
f 86/37/62 91/39/62 90/38/62
f 89/37/63 85/40/63 86/39/63
f 89/37/63 86/39/63 90/38/63
f 88/37/64 92/40/64 91/39/64
f 88/37/64 91/39/64 87/38/64
f 93/41/65 96/44/65 95/43/65
f 93/41/65 95/43/65 94/42/65
f 98/41/66 99/44/66 100/43/66
f 98/41/66 100/43/66 97/42/66
f 97/41/67 100/44/67 96/43/67
f 97/41/67 96/43/67 93/42/67
f 94/41/68 95/44/68 99/43/68
f 94/41/68 99/43/68 98/42/68
f 97/41/69 93/44/69 94/43/69
f 97/41/69 94/43/69 98/42/69
f 96/41/70 100/44/70 99/43/70
f 96/41/70 99/43/70 95/42/70
f 101/45/71 104/48/71 103/47/71
f 101/45/71 103/47/71 102/46/71
f 106/45/72 107/48/72 108/47/72
f 106/45/72 108/47/72 105/46/72
f 105/45/73 108/48/73 104/47/73
f 105/45/73 104/47/73 101/46/73
f 102/45/74 103/48/74 107/47/74
f 102/45/74 107/47/74 106/46/74
f 105/45/75 101/48/75 102/47/75
f 105/45/75 102/47/75 106/46/75
f 104/45/76 108/48/76 107/47/76
f 104/45/76 107/47/76 103/46/76
f 109/49/77 112/52/77 111/51/77
f 109/49/77 111/51/77 110/50/77
f 114/49/78 115/52/78 116/51/78
f 114/49/78 116/51/78 113/50/78
f 113/49/79 116/52/79 112/51/79
f 113/49/79 112/51/79 109/50/79
f 110/49/80 111/52/80 115/51/80
f 110/49/80 115/51/80 114/50/80
f 113/49/81 109/52/81 110/51/81
f 113/49/81 110/51/81 114/50/81
f 112/49/82 116/52/82 115/51/82
f 112/49/82 115/51/82 111/50/82
f 117/53/83 120/56/83 119/55/83
f 117/53/83 119/55/83 118/54/83
f 122/53/84 123/56/84 124/55/84
f 122/53/84 124/55/84 121/54/84
f 121/53/85 124/56/85 120/55/85
f 121/53/85 120/55/85 117/54/85
f 118/53/86 119/56/86 123/55/86
f 118/53/86 123/55/86 122/54/86
f 121/53/87 117/56/87 118/55/87
f 121/53/87 118/55/87 122/54/87
f 120/53/88 124/56/88 123/55/88
f 120/53/88 123/55/88 119/54/88
f 125/57/89 128/60/89 127/59/89
f 125/57/89 127/59/89 126/58/89
f 130/57/90 131/60/90 132/59/90
f 130/57/90 132/59/90 129/58/90
f 129/57/91 132/60/91 128/59/91
f 129/57/91 128/59/91 125/58/91
f 126/57/92 127/60/92 131/59/92
f 126/57/92 131/59/92 130/58/92
f 129/57/93 125/60/93 126/59/93
f 129/57/93 126/59/93 130/58/93
f 128/57/94 132/60/94 131/59/94
f 128/57/94 131/59/94 127/58/94
f 133/61/95 136/64/95 135/63/95
f 133/61/95 135/63/95 134/62/95
f 138/61/96 139/64/96 140/63/96
f 138/61/96 140/63/96 137/62/96
f 137/61/97 140/64/97 136/63/97
f 137/61/97 136/63/97 133/62/97
f 134/61/98 135/64/98 139/63/98
f 134/61/98 139/63/98 138/62/98
f 137/61/99 133/64/99 134/63/99
f 137/61/99 134/63/99 138/62/99
f 136/61/100 140/64/100 139/63/100
f 136/61/100 139/63/100 135/62/100
f 141/65/101 144/68/101 143/67/101
f 141/65/101 143/67/101 142/66/101
f 146/65/102 147/68/102 148/67/102
f 146/65/102 148/67/102 145/66/102
f 145/65/103 148/68/103 144/67/103
f 145/65/103 144/67/103 141/66/103
f 142/65/104 143/68/104 147/67/104
f 142/65/104 147/67/104 146/66/104
f 145/65/105 141/68/105 142/67/105
f 145/65/105 142/67/105 146/66/105
f 144/65/106 148/68/106 147/67/106
f 144/65/106 147/67/106 143/66/106
f 149/5/107 150/8/107 159/7/107
f 149/5/107 159/7/107 158/6/107
f 150/5/108 151/8/108 160/7/108
f 150/5/108 160/7/108 159/6/108
f 151/5/109 152/8/109 161/7/109
f 151/5/109 161/7/109 160/6/109
f 152/5/110 153/8/110 162/7/110
f 152/5/110 162/7/110 161/6/110
f 153/5/111 154/8/111 163/7/111
f 153/5/111 163/7/111 162/6/111
f 154/5/112 155/8/112 164/7/112
f 154/5/112 164/7/112 163/6/112
f 155/5/113 156/8/113 165/7/113
f 155/5/113 165/7/113 164/6/113
f 156/5/114 157/8/114 166/7/114
f 156/5/114 166/7/114 165/6/114
f 167/5/115 168/8/115 177/7/115
f 167/5/115 177/7/115 176/6/115
f 168/5/116 169/8/116 178/7/116
f 168/5/116 178/7/116 177/6/116
f 169/5/117 170/8/117 179/7/117
f 169/5/117 179/7/117 178/6/117
f 170/5/118 171/8/118 180/7/118
f 170/5/118 180/7/118 179/6/118
f 171/5/119 172/8/119 181/7/119
f 171/5/119 181/7/119 180/6/119
f 172/5/120 173/8/120 182/7/120
f 172/5/120 182/7/120 181/6/120
f 173/5/121 174/8/121 183/7/121
f 173/5/121 183/7/121 182/6/121
f 174/5/122 175/8/122 184/7/122
f 174/5/122 184/7/122 183/6/122
f 185/5/123 186/8/123 195/7/123
f 185/5/123 195/7/123 194/6/123
f 186/5/124 187/8/124 196/7/124
f 186/5/124 196/7/124 195/6/124
f 187/5/125 188/8/125 197/7/125
f 187/5/125 197/7/125 196/6/125
f 188/5/126 189/8/126 198/7/126
f 188/5/126 198/7/126 197/6/126
f 189/5/127 190/8/127 199/7/127
f 189/5/127 199/7/127 198/6/127
f 190/5/128 191/8/128 200/7/128
f 190/5/128 200/7/128 199/6/128
f 191/5/129 192/8/129 201/7/129
f 191/5/129 201/7/129 200/6/129
f 192/5/130 193/8/130 202/7/130
f 192/5/130 202/7/130 201/6/130
f 203/5/131 204/8/131 213/7/131
f 203/5/131 213/7/131 212/6/131
f 204/5/132 205/8/132 214/7/132
f 204/5/132 214/7/132 213/6/132
f 205/5/133 206/8/133 215/7/133
f 205/5/133 215/7/133 214/6/133
f 206/5/134 207/8/134 216/7/134
f 206/5/134 216/7/134 215/6/134
f 207/5/135 208/8/135 217/7/135
f 207/5/135 217/7/135 216/6/135
f 208/5/136 209/8/136 218/7/136
f 208/5/136 218/7/136 217/6/136
f 209/5/137 210/8/137 219/7/137
f 209/5/137 219/7/137 218/6/137
f 210/5/138 211/8/138 220/7/138
f 210/5/138 220/7/138 219/6/138
f 221/69/139 224/72/139 223/71/139
f 221/69/139 223/71/139 222/70/139
f 226/69/140 227/72/140 228/71/140
f 226/69/140 228/71/140 225/70/140
f 225/69/141 228/72/141 224/71/141
f 225/69/141 224/71/141 221/70/141
f 222/69/142 223/72/142 227/71/142
f 222/69/142 227/71/142 226/70/142
f 225/69/143 221/72/143 222/71/143
f 225/69/143 222/71/143 226/70/143
f 224/69/144 228/72/144 227/71/144
f 224/69/144 227/71/144 223/70/144
f 229/73/145 232/76/145 231/75/145
f 229/73/145 231/75/145 230/74/145
f 234/73/146 235/76/146 236/75/146
f 234/73/146 236/75/146 233/74/146
f 233/73/147 236/76/147 232/75/147
f 233/73/147 232/75/147 229/74/147
f 230/73/148 231/76/148 235/75/148
f 230/73/148 235/75/148 234/74/148
f 233/73/149 229/76/149 230/75/149
f 233/73/149 230/75/149 234/74/149
f 232/73/150 236/76/150 235/75/150
f 232/73/150 235/75/150 231/74/150
f 237/77/151 240/80/151 239/79/151
f 237/77/151 239/79/151 238/78/151
f 242/77/152 243/80/152 244/79/152
f 242/77/152 244/79/152 241/78/152
f 241/77/153 244/80/153 240/79/153
f 241/77/153 240/79/153 237/78/153
f 238/77/154 239/80/154 243/79/154
f 238/77/154 243/79/154 242/78/154
f 241/77/155 237/80/155 238/79/155
f 241/77/155 238/79/155 242/78/155
f 240/77/156 244/80/156 243/79/156
f 240/77/156 243/79/156 239/78/156
f 245/81/157 248/84/157 247/83/157
f 245/81/157 247/83/157 246/82/157
f 250/81/158 251/84/158 252/83/158
f 250/81/158 252/83/158 249/82/158
f 249/81/159 252/84/159 248/83/159
f 249/81/159 248/83/159 245/82/159
f 246/81/160 247/84/160 251/83/160
f 246/81/160 251/83/160 250/82/160
f 249/81/161 245/84/161 246/83/161
f 249/81/161 246/83/161 250/82/161
f 248/81/162 252/84/162 251/83/162
f 248/81/162 251/83/162 247/82/162
f 253/85/163 256/88/163 255/87/163
f 253/85/163 255/87/163 254/86/163
f 258/85/164 259/88/164 260/87/164
f 258/85/164 260/87/164 257/86/164
f 257/85/165 260/88/165 256/87/165
f 257/85/165 256/87/165 253/86/165
f 254/85/166 255/88/166 259/87/166
f 254/85/166 259/87/166 258/86/166
f 257/85/167 253/88/167 254/87/167
f 257/85/167 254/87/167 258/86/167
f 256/85/168 260/88/168 259/87/168
f 256/85/168 259/87/168 255/86/168
f 261/89/169 264/92/169 263/91/169
f 261/89/169 263/91/169 262/90/169
f 266/89/170 267/92/170 268/91/170
f 266/89/170 268/91/170 265/90/170
f 265/89/171 268/92/171 264/91/171
f 265/89/171 264/91/171 261/90/171
f 262/89/172 263/92/172 267/91/172
f 262/89/172 267/91/172 266/90/172
f 265/89/173 261/92/173 262/91/173
f 265/89/173 262/91/173 266/90/173
f 264/89/174 268/92/174 267/91/174
f 264/89/174 267/91/174 263/90/174
f 269/93/175 272/96/175 271/95/175
f 269/93/175 271/95/175 270/94/175
f 274/93/176 275/96/176 276/95/176
f 274/93/176 276/95/176 273/94/176
f 273/93/177 276/96/177 272/95/177
f 273/93/177 272/95/177 269/94/177
f 270/93/178 271/96/178 275/95/178
f 270/93/178 275/95/178 274/94/178
f 273/93/179 269/96/179 270/95/179
f 273/93/179 270/95/179 274/94/179
f 272/93/180 276/96/180 275/95/180
f 272/93/180 275/95/180 271/94/180
f 277/97/181 280/100/181 279/99/181
f 277/97/181 279/99/181 278/98/181
f 282/97/182 283/100/182 284/99/182
f 282/97/182 284/99/182 281/98/182
f 281/97/183 284/100/183 280/99/183
f 281/97/183 280/99/183 277/98/183
f 278/97/184 279/100/184 283/99/184
f 278/97/184 283/99/184 282/98/184
f 281/97/185 277/100/185 278/99/185
f 281/97/185 278/99/185 282/98/185
f 280/97/186 284/100/186 283/99/186
f 280/97/186 283/99/186 279/98/186
f 285/101/187 288/104/187 287/103/187
f 285/101/187 287/103/187 286/102/187
f 290/101/188 291/104/188 292/103/188
f 290/101/188 292/103/188 289/102/188
f 289/101/189 292/104/189 288/103/189
f 289/101/189 288/103/189 285/102/189
f 286/101/190 287/104/190 291/103/190
f 286/101/190 291/103/190 290/102/190
f 289/101/191 285/104/191 286/103/191
f 289/101/191 286/103/191 290/102/191
f 288/101/192 292/104/192 291/103/192
f 288/101/192 291/103/192 287/102/192
f 293/105/193 296/108/193 295/107/193
f 293/105/193 295/107/193 294/106/193
f 298/105/194 299/108/194 300/107/194
f 298/105/194 300/107/194 297/106/194
f 297/105/195 300/108/195 296/107/195
f 297/105/195 296/107/195 293/106/195
f 294/105/196 295/108/196 299/107/196
f 294/105/196 299/107/196 298/106/196
f 297/105/197 293/108/197 294/107/197
f 297/105/197 294/107/197 298/106/197
f 296/105/198 300/108/198 299/107/198
f 296/105/198 299/107/198 295/106/198
f 301/109/199 304/112/199 303/111/199
f 301/109/199 303/111/199 302/110/199
f 306/109/200 307/112/200 308/111/200
f 306/109/200 308/111/200 305/110/200
f 305/109/201 308/112/201 304/111/201
f 305/109/201 304/111/201 301/110/201
f 302/109/202 303/112/202 307/111/202
f 302/109/202 307/111/202 306/110/202
f 305/109/203 301/112/203 302/111/203
f 305/109/203 302/111/203 306/110/203
f 304/109/204 308/112/204 307/111/204
f 304/109/204 307/111/204 303/110/204
f 325/121/217 328/124/217 327/123/217
f 325/121/217 327/123/217 326/122/217
f 330/121/218 331/124/218 332/123/218
f 330/121/218 332/123/218 329/122/218
f 329/121/219 332/124/219 328/123/219
f 329/121/219 328/123/219 325/122/219
f 326/121/220 327/124/220 331/123/220
f 326/121/220 331/123/220 330/122/220
f 329/121/221 325/124/221 326/123/221
f 329/121/221 326/123/221 330/122/221
f 328/121/222 332/124/222 331/123/222
f 328/121/222 331/123/222 327/122/222
f 333/125/223 336/128/223 335/127/223
f 333/125/223 335/127/223 334/126/223
f 338/125/224 339/128/224 340/127/224
f 338/125/224 340/127/224 337/126/224
f 337/125/225 340/128/225 336/127/225
f 337/125/225 336/127/225 333/126/225
f 334/125/226 335/128/226 339/127/226
f 334/125/226 339/127/226 338/126/226
f 337/125/227 333/128/227 334/127/227
f 337/125/227 334/127/227 338/126/227
f 336/125/228 340/128/228 339/127/228
f 336/125/228 339/127/228 335/126/228
f 341/129/229 344/132/229 343/131/229
f 341/129/229 343/131/229 342/130/229
f 346/129/230 347/132/230 348/131/230
f 346/129/230 348/131/230 345/130/230
f 345/129/231 348/132/231 344/131/231
f 345/129/231 344/131/231 341/130/231
f 342/129/232 343/132/232 347/131/232
f 342/129/232 347/131/232 346/130/232
f 345/129/233 341/132/233 342/131/233
f 345/129/233 342/131/233 346/130/233
f 344/129/234 348/132/234 347/131/234
f 344/129/234 347/131/234 343/130/234
f 349/133/235 352/136/235 351/135/235
f 349/133/235 351/135/235 350/134/235
f 354/133/236 355/136/236 356/135/236
f 354/133/236 356/135/236 353/134/236
f 353/133/237 356/136/237 352/135/237
f 353/133/237 352/135/237 349/134/237
f 350/133/238 351/136/238 355/135/238
f 350/133/238 355/135/238 354/134/238
f 353/133/239 349/136/239 350/135/239
f 353/133/239 350/135/239 354/134/239
f 352/133/240 356/136/240 355/135/240
f 352/133/240 355/135/240 351/134/240
f 357/137/241 360/140/241 359/139/241
f 357/137/241 359/139/241 358/138/241
f 362/137/242 363/140/242 364/139/242
f 362/137/242 364/139/242 361/138/242
f 361/137/243 364/140/243 360/139/243
f 361/137/243 360/139/243 357/138/243
f 358/137/244 359/140/244 363/139/244
f 358/137/244 363/139/244 362/138/244
f 361/137/245 357/140/245 358/139/245
f 361/137/245 358/139/245 362/138/245
f 360/137/246 364/140/246 363/139/246
f 360/137/246 363/139/246 359/138/246
f 365/141/247 368/144/247 367/143/247
f 365/141/247 367/143/247 366/142/247
f 370/141/248 371/144/248 372/143/248
f 370/141/248 372/143/248 369/142/248
f 369/141/249 372/144/249 368/143/249
f 369/141/249 368/143/249 365/142/249
f 366/141/250 367/144/250 371/143/250
f 366/141/250 371/143/250 370/142/250
f 369/141/251 365/144/251 366/143/251
f 369/141/251 366/143/251 370/142/251
f 368/141/252 372/144/252 371/143/252
f 368/141/252 371/143/252 367/142/252
f 373/145/253 376/148/253 375/147/253
f 373/145/253 375/147/253 374/146/253
f 378/145/254 379/148/254 380/147/254
f 378/145/254 380/147/254 377/146/254
f 377/145/255 380/148/255 376/147/255
f 377/145/255 376/147/255 373/146/255
f 374/145/256 375/148/256 379/147/256
f 374/145/256 379/147/256 378/146/256
f 377/145/257 373/148/257 374/147/257
f 377/145/257 374/147/257 378/146/257
f 376/145/258 380/148/258 379/147/258
f 376/145/258 379/147/258 375/146/258
f 381/149/259 384/152/259 383/151/259
f 381/149/259 383/151/259 382/150/259
f 386/149/260 387/152/260 388/151/260
f 386/149/260 388/151/260 385/150/260
f 385/149/261 388/152/261 384/151/261
f 385/149/261 384/151/261 381/150/261
f 382/149/262 383/152/262 387/151/262
f 382/149/262 387/151/262 386/150/262
f 385/149/263 381/152/263 382/151/263
f 385/149/263 382/151/263 386/150/263
f 384/149/264 388/152/264 387/151/264
f 384/149/264 387/151/264 383/150/264
f 389/153/265 392/156/265 391/155/265
f 389/153/265 391/155/265 390/154/265
f 394/153/266 395/156/266 396/155/266
f 394/153/266 396/155/266 393/154/266
f 393/153/267 396/156/267 392/155/267
f 393/153/267 392/155/267 389/154/267
f 390/153/268 391/156/268 395/155/268
f 390/153/268 395/155/268 394/154/268
f 393/153/269 389/156/269 390/155/269
f 393/153/269 390/155/269 394/154/269
f 392/153/270 396/156/270 395/155/270
f 392/153/270 395/155/270 391/154/270
f 397/157/271 400/160/271 399/159/271
f 397/157/271 399/159/271 398/158/271
f 402/157/272 403/160/272 404/159/272
f 402/157/272 404/159/272 401/158/272
f 401/157/273 404/160/273 400/159/273
f 401/157/273 400/159/273 397/158/273
f 398/157/274 399/160/274 403/159/274
f 398/157/274 403/159/274 402/158/274
f 401/157/275 397/160/275 398/159/275
f 401/157/275 398/159/275 402/158/275
f 400/157/276 404/160/276 403/159/276
f 400/157/276 403/159/276 399/158/276
f 405/161/277 408/164/277 407/163/277
f 405/161/277 407/163/277 406/162/277
f 410/161/278 411/164/278 412/163/278
f 410/161/278 412/163/278 409/162/278
f 409/161/279 412/164/279 408/163/279
f 409/161/279 408/163/279 405/162/279
f 406/161/280 407/164/280 411/163/280
f 406/161/280 411/163/280 410/162/280
f 409/161/281 405/164/281 406/163/281
f 409/161/281 406/163/281 410/162/281
f 408/161/282 412/164/282 411/163/282
f 408/161/282 411/163/282 407/162/282
f 413/165/283 416/168/283 415/167/283
f 413/165/283 415/167/283 414/166/283
f 418/165/284 419/168/284 420/167/284
f 418/165/284 420/167/284 417/166/284
f 417/165/285 420/168/285 416/167/285
f 417/165/285 416/167/285 413/166/285
f 414/165/286 415/168/286 419/167/286
f 414/165/286 419/167/286 418/166/286
f 417/165/287 413/168/287 414/167/287
f 417/165/287 414/167/287 418/166/287
f 416/165/288 420/168/288 419/167/288
f 416/165/288 419/167/288 415/166/288
f 421/169/289 424/172/289 423/171/289
f 421/169/289 423/171/289 422/170/289
f 426/169/290 427/172/290 428/171/290
f 426/169/290 428/171/290 425/170/290
f 425/169/291 428/172/291 424/171/291
f 425/169/291 424/171/291 421/170/291
f 422/169/292 423/172/292 427/171/292
f 422/169/292 427/171/292 426/170/292
f 425/169/293 421/172/293 422/171/293
f 425/169/293 422/171/293 426/170/293
f 424/169/294 428/172/294 427/171/294
f 424/169/294 427/171/294 423/170/294
f 429/173/295 432/176/295 431/175/295
f 429/173/295 431/175/295 430/174/295
f 434/173/296 435/176/296 436/175/296
f 434/173/296 436/175/296 433/174/296
f 433/173/297 436/176/297 432/175/297
f 433/173/297 432/175/297 429/174/297
f 430/173/298 431/176/298 435/175/298
f 430/173/298 435/175/298 434/174/298
f 433/173/299 429/176/299 430/175/299
f 433/173/299 430/175/299 434/174/299
f 432/173/300 436/176/300 435/175/300
f 432/173/300 435/175/300 431/174/300
f 437/177/301 440/180/301 439/179/301
f 437/177/301 439/179/301 438/178/301
f 442/177/302 443/180/302 444/179/302
f 442/177/302 444/179/302 441/178/302
f 441/177/303 444/180/303 440/179/303
f 441/177/303 440/179/303 437/178/303
f 438/177/304 439/180/304 443/179/304
f 438/177/304 443/179/304 442/178/304
f 441/177/305 437/180/305 438/179/305
f 441/177/305 438/179/305 442/178/305
f 440/177/306 444/180/306 443/179/306
f 440/177/306 443/179/306 439/178/306
f 445/181/307 448/184/307 447/183/307
f 445/181/307 447/183/307 446/182/307
f 450/181/308 451/184/308 452/183/308
f 450/181/308 452/183/308 449/182/308
f 449/181/309 452/184/309 448/183/309
f 449/181/309 448/183/309 445/182/309
f 446/181/310 447/184/310 451/183/310
f 446/181/310 451/183/310 450/182/310
f 449/181/311 445/184/311 446/183/311
f 449/181/311 446/183/311 450/182/311
f 448/181/312 452/184/312 451/183/312
f 448/181/312 451/183/312 447/182/312
f 453/185/313 456/188/313 455/187/313
f 453/185/313 455/187/313 454/186/313
f 458/185/314 459/188/314 460/187/314
f 458/185/314 460/187/314 457/186/314
f 457/185/315 460/188/315 456/187/315
f 457/185/315 456/187/315 453/186/315
f 454/185/316 455/188/316 459/187/316
f 454/185/316 459/187/316 458/186/316
f 457/185/317 453/188/317 454/187/317
f 457/185/317 454/187/317 458/186/317
f 456/185/318 460/188/318 459/187/318
f 456/185/318 459/187/318 455/186/318
f 461/189/319 464/192/319 463/191/319
f 461/189/319 463/191/319 462/190/319
f 466/189/320 467/192/320 468/191/320
f 466/189/320 468/191/320 465/190/320
f 465/189/321 468/192/321 464/191/321
f 465/189/321 464/191/321 461/190/321
f 462/189/322 463/192/322 467/191/322
f 462/189/322 467/191/322 466/190/322
f 465/189/323 461/192/323 462/191/323
f 465/189/323 462/191/323 466/190/323
f 464/189/324 468/192/324 467/191/324
f 464/189/324 467/191/324 463/190/324
f 469/193/325 472/196/325 471/195/325
f 469/193/325 471/195/325 470/194/325
f 474/193/326 475/196/326 476/195/326
f 474/193/326 476/195/326 473/194/326
f 473/193/327 476/196/327 472/195/327
f 473/193/327 472/195/327 469/194/327
f 470/193/328 471/196/328 475/195/328
f 470/193/328 475/195/328 474/194/328
f 473/193/329 469/196/329 470/195/329
f 473/193/329 470/195/329 474/194/329
f 472/193/330 476/196/330 475/195/330
f 472/193/330 475/195/330 471/194/330
f 477/197/331 480/200/331 479/199/331
f 477/197/331 479/199/331 478/198/331
f 482/197/332 483/200/332 484/199/332
f 482/197/332 484/199/332 481/198/332
f 481/197/333 484/200/333 480/199/333
f 481/197/333 480/199/333 477/198/333
f 478/197/334 479/200/334 483/199/334
f 478/197/334 483/199/334 482/198/334
f 481/197/335 477/200/335 478/199/335
f 481/197/335 478/199/335 482/198/335
f 480/197/336 484/200/336 483/199/336
f 480/197/336 483/199/336 479/198/336
f 485/201/337 488/204/337 487/203/337
f 485/201/337 487/203/337 486/202/337
f 490/201/338 491/204/338 492/203/338
f 490/201/338 492/203/338 489/202/338
f 489/201/339 492/204/339 488/203/339
f 489/201/339 488/203/339 485/202/339
f 486/201/340 487/204/340 491/203/340
f 486/201/340 491/203/340 490/202/340
f 489/201/341 485/204/341 486/203/341
f 489/201/341 486/203/341 490/202/341
f 488/201/342 492/204/342 491/203/342
f 488/201/342 491/203/342 487/202/342

g Gold
usemtl Gold
s 1
f 309/113/205 312/116/205 311/115/205
f 309/113/205 311/115/205 310/114/205
f 314/113/206 315/116/206 316/115/206
f 314/113/206 316/115/206 313/114/206
f 313/113/207 316/116/207 312/115/207
f 313/113/207 312/115/207 309/114/207
f 310/113/208 311/116/208 315/115/208
f 310/113/208 315/115/208 314/114/208
f 313/113/209 309/116/209 310/115/209
f 313/113/209 310/115/209 314/114/209
f 312/113/210 316/116/210 315/115/210
f 312/113/210 315/115/210 311/114/210
f 317/117/211 320/120/211 319/119/211
f 317/117/211 319/119/211 318/118/211
f 322/117/212 323/120/212 324/119/212
f 322/117/212 324/119/212 321/118/212
f 321/117/213 324/120/213 320/119/213
f 321/117/213 320/119/213 317/118/213
f 318/117/214 319/120/214 323/119/214
f 318/117/214 323/119/214 322/118/214
f 321/117/215 317/120/215 318/119/215
f 321/117/215 318/119/215 322/118/215
f 320/117/216 324/120/216 323/119/216
f 320/117/216 323/119/216 319/118/216

