# Duskborn Stylized Workbench Model
mtllib Workbench.mtl
o Workbench

v -0.76000 0.00000 -0.38000
v -0.64000 0.00000 -0.38000
v -0.64000 0.74000 -0.38000
v -0.76000 0.74000 -0.38000
v -0.76000 0.00000 -0.26000
v -0.64000 0.00000 -0.26000
v -0.64000 0.74000 -0.26000
v -0.76000 0.74000 -0.26000
v 0.64000 0.00000 -0.38000
v 0.76000 0.00000 -0.38000
v 0.76000 0.74000 -0.38000
v 0.64000 0.74000 -0.38000
v 0.64000 0.00000 -0.26000
v 0.76000 0.00000 -0.26000
v 0.76000 0.74000 -0.26000
v 0.64000 0.74000 -0.26000
v -0.76000 0.00000 0.26000
v -0.64000 0.00000 0.26000
v -0.64000 0.74000 0.26000
v -0.76000 0.74000 0.26000
v -0.76000 0.00000 0.38000
v -0.64000 0.00000 0.38000
v -0.64000 0.74000 0.38000
v -0.76000 0.74000 0.38000
v 0.64000 0.00000 0.26000
v 0.76000 0.00000 0.26000
v 0.76000 0.74000 0.26000
v 0.64000 0.74000 0.26000
v 0.64000 0.00000 0.38000
v 0.76000 0.00000 0.38000
v 0.76000 0.74000 0.38000
v 0.64000 0.74000 0.38000
v -0.64000 0.62000 -0.36000
v 0.64000 0.62000 -0.36000
v 0.64000 0.74000 -0.36000
v -0.64000 0.74000 -0.36000
v -0.64000 0.62000 -0.28000
v 0.64000 0.62000 -0.28000
v 0.64000 0.74000 -0.28000
v -0.64000 0.74000 -0.28000
v -0.64000 0.62000 0.28000
v 0.64000 0.62000 0.28000
v 0.64000 0.74000 0.28000
v -0.64000 0.74000 0.28000
v -0.64000 0.62000 0.36000
v 0.64000 0.62000 0.36000
v 0.64000 0.74000 0.36000
v -0.64000 0.74000 0.36000
v -0.74000 0.62000 -0.26000
v -0.66000 0.62000 -0.26000
v -0.66000 0.74000 -0.26000
v -0.74000 0.74000 -0.26000
v -0.74000 0.62000 0.26000
v -0.66000 0.62000 0.26000
v -0.66000 0.74000 0.26000
v -0.74000 0.74000 0.26000
v 0.66000 0.62000 -0.26000
v 0.74000 0.62000 -0.26000
v 0.74000 0.74000 -0.26000
v 0.66000 0.74000 -0.26000
v 0.66000 0.62000 0.26000
v 0.74000 0.62000 0.26000
v 0.74000 0.74000 0.26000
v 0.66000 0.74000 0.26000
v -0.64000 0.60000 -0.33000
v -0.46000 0.60000 -0.33000
v -0.46000 0.66000 -0.33000
v -0.64000 0.66000 -0.33000
v -0.64000 0.60000 -0.31000
v -0.46000 0.60000 -0.31000
v -0.46000 0.66000 -0.31000
v -0.64000 0.66000 -0.31000
v 0.46000 0.60000 -0.33000
v 0.64000 0.60000 -0.33000
v 0.64000 0.66000 -0.33000
v 0.46000 0.66000 -0.33000
v 0.46000 0.60000 -0.31000
v 0.64000 0.60000 -0.31000
v 0.64000 0.66000 -0.31000
v 0.46000 0.66000 -0.31000
v -0.64000 0.60000 0.31000
v -0.46000 0.60000 0.31000
v -0.46000 0.66000 0.31000
v -0.64000 0.66000 0.31000
v -0.64000 0.60000 0.33000
v -0.46000 0.60000 0.33000
v -0.46000 0.66000 0.33000
v -0.64000 0.66000 0.33000
v 0.46000 0.60000 0.31000
v 0.64000 0.60000 0.31000
v 0.64000 0.66000 0.31000
v 0.46000 0.66000 0.31000
v 0.46000 0.60000 0.33000
v 0.64000 0.60000 0.33000
v 0.64000 0.66000 0.33000
v 0.46000 0.66000 0.33000
v -0.64000 0.14000 -0.35000
v 0.64000 0.14000 -0.35000
v 0.64000 0.20000 -0.35000
v -0.64000 0.20000 -0.35000
v -0.64000 0.14000 -0.29000
v 0.64000 0.14000 -0.29000
v 0.64000 0.20000 -0.29000
v -0.64000 0.20000 -0.29000
v -0.64000 0.14000 0.29000
v 0.64000 0.14000 0.29000
v 0.64000 0.20000 0.29000
v -0.64000 0.20000 0.29000
v -0.64000 0.14000 0.35000
v 0.64000 0.14000 0.35000
v 0.64000 0.20000 0.35000
v -0.64000 0.20000 0.35000
v -0.73000 0.14000 -0.26000
v -0.67000 0.14000 -0.26000
v -0.67000 0.20000 -0.26000
v -0.73000 0.20000 -0.26000
v -0.73000 0.14000 0.26000
v -0.67000 0.14000 0.26000
v -0.67000 0.20000 0.26000
v -0.73000 0.20000 0.26000
v 0.67000 0.14000 -0.26000
v 0.73000 0.14000 -0.26000
v 0.73000 0.20000 -0.26000
v 0.67000 0.20000 -0.26000
v 0.67000 0.14000 0.26000
v 0.73000 0.14000 0.26000
v 0.73000 0.20000 0.26000
v 0.67000 0.20000 0.26000
v -0.60000 0.20000 -0.30000
v -0.48000 0.20000 -0.30000
v -0.48000 0.23000 -0.30000
v -0.60000 0.23000 -0.30000
v -0.60000 0.20000 0.30000
v -0.48000 0.20000 0.30000
v -0.48000 0.23000 0.30000
v -0.60000 0.23000 0.30000
v -0.42000 0.20000 -0.30000
v -0.30000 0.20000 -0.30000
v -0.30000 0.23000 -0.30000
v -0.42000 0.23000 -0.30000
v -0.42000 0.20000 0.30000
v -0.30000 0.20000 0.30000
v -0.30000 0.23000 0.30000
v -0.42000 0.23000 0.30000
v -0.24000 0.20000 -0.30000
v -0.12000 0.20000 -0.30000
v -0.12000 0.23000 -0.30000
v -0.24000 0.23000 -0.30000
v -0.24000 0.20000 0.30000
v -0.12000 0.20000 0.30000
v -0.12000 0.23000 0.30000
v -0.24000 0.23000 0.30000
v -0.06000 0.20000 -0.30000
v 0.06000 0.20000 -0.30000
v 0.06000 0.23000 -0.30000
v -0.06000 0.23000 -0.30000
v -0.06000 0.20000 0.30000
v 0.06000 0.20000 0.30000
v 0.06000 0.23000 0.30000
v -0.06000 0.23000 0.30000
v 0.12000 0.20000 -0.30000
v 0.24000 0.20000 -0.30000
v 0.24000 0.23000 -0.30000
v 0.12000 0.23000 -0.30000
v 0.12000 0.20000 0.30000
v 0.24000 0.20000 0.30000
v 0.24000 0.23000 0.30000
v 0.12000 0.23000 0.30000
v 0.30000 0.20000 -0.30000
v 0.42000 0.20000 -0.30000
v 0.42000 0.23000 -0.30000
v 0.30000 0.23000 -0.30000
v 0.30000 0.20000 0.30000
v 0.42000 0.20000 0.30000
v 0.42000 0.23000 0.30000
v 0.30000 0.23000 0.30000
v 0.48000 0.20000 -0.30000
v 0.60000 0.20000 -0.30000
v 0.60000 0.23000 -0.30000
v 0.48000 0.23000 -0.30000
v 0.48000 0.20000 0.30000
v 0.60000 0.20000 0.30000
v 0.60000 0.23000 0.30000
v 0.48000 0.23000 0.30000
v -0.85000 0.74000 -0.43000
v 0.85000 0.74000 -0.43000
v 0.85000 0.83000 -0.43000
v -0.85000 0.83000 -0.43000
v -0.85000 0.74000 -0.15000
v 0.85000 0.74000 -0.15000
v 0.85000 0.83000 -0.15000
v -0.85000 0.83000 -0.15000
v -0.85000 0.74000 -0.13000
v 0.85000 0.74000 -0.13000
v 0.85000 0.83000 -0.13000
v -0.85000 0.83000 -0.13000
v -0.85000 0.74000 0.13000
v 0.85000 0.74000 0.13000
v 0.85000 0.83000 0.13000
v -0.85000 0.83000 0.13000
v -0.85000 0.74000 0.15000
v 0.85000 0.74000 0.15000
v 0.85000 0.83000 0.15000
v -0.85000 0.83000 0.15000
v -0.85000 0.74000 0.43000
v 0.85000 0.74000 0.43000
v 0.85000 0.83000 0.43000
v -0.85000 0.83000 0.43000
v -0.35000 0.83000 0.38000
v -0.29000 0.83000 0.38000
v -0.29000 1.16000 0.38000
v -0.35000 1.16000 0.38000
v -0.35000 0.83000 0.43000
v -0.29000 0.83000 0.43000
v -0.29000 1.16000 0.43000
v -0.35000 1.16000 0.43000
v 0.45000 0.83000 0.38000
v 0.51000 0.83000 0.38000
v 0.51000 1.16000 0.38000
v 0.45000 1.16000 0.38000
v 0.45000 0.83000 0.43000
v 0.51000 0.83000 0.43000
v 0.51000 1.16000 0.43000
v 0.45000 1.16000 0.43000
v -0.33000 1.00000 0.39000
v 0.49000 1.00000 0.39000
v 0.49000 1.13000 0.39000
v -0.33000 1.13000 0.39000
v -0.33000 1.00000 0.42000
v 0.49000 1.00000 0.42000
v 0.49000 1.13000 0.42000
v -0.33000 1.13000 0.42000
v -0.21500 1.05000 0.34000
v -0.18500 1.05000 0.34000
v -0.18500 1.08000 0.34000
v -0.21500 1.08000 0.34000
v -0.21500 1.05000 0.39000
v -0.18500 1.05000 0.39000
v -0.18500 1.08000 0.39000
v -0.21500 1.08000 0.39000
v -0.06500 1.05000 0.34000
v -0.03500 1.05000 0.34000
v -0.03500 1.08000 0.34000
v -0.06500 1.08000 0.34000
v -0.06500 1.05000 0.39000
v -0.03500 1.05000 0.39000
v -0.03500 1.08000 0.39000
v -0.06500 1.08000 0.39000
v 0.08500 1.05000 0.34000
v 0.11500 1.05000 0.34000
v 0.11500 1.08000 0.34000
v 0.08500 1.08000 0.34000
v 0.08500 1.05000 0.39000
v 0.11500 1.05000 0.39000
v 0.11500 1.08000 0.39000
v 0.08500 1.08000 0.39000
v 0.23500 1.05000 0.34000
v 0.26500 1.05000 0.34000
v 0.26500 1.08000 0.34000
v 0.23500 1.08000 0.34000
v 0.23500 1.05000 0.39000
v 0.26500 1.05000 0.39000
v 0.26500 1.08000 0.39000
v 0.23500 1.08000 0.39000
v 0.38500 1.05000 0.34000
v 0.41500 1.05000 0.34000
v 0.41500 1.08000 0.34000
v 0.38500 1.08000 0.34000
v 0.38500 1.05000 0.39000
v 0.41500 1.05000 0.39000
v 0.41500 1.08000 0.39000
v 0.38500 1.08000 0.39000
v 0.34000 0.70000 -0.50000
v 0.66000 0.70000 -0.50000
v 0.66000 0.83000 -0.50000
v 0.34000 0.83000 -0.50000
v 0.34000 0.70000 -0.44000
v 0.66000 0.70000 -0.44000
v 0.66000 0.83000 -0.44000
v 0.34000 0.83000 -0.44000
v 0.51600 0.67000 -0.62000
v 0.51600 0.85000 -0.62000
v 0.50800 0.67000 -0.60614
v 0.50800 0.85000 -0.60614
v 0.49200 0.67000 -0.60614
v 0.49200 0.85000 -0.60614
v 0.48400 0.67000 -0.62000
v 0.48400 0.85000 -0.62000
v 0.49200 0.67000 -0.63386
v 0.49200 0.85000 -0.63386
v 0.50800 0.67000 -0.63386
v 0.50800 0.85000 -0.63386
v 0.50000 0.67000 -0.62000
v 0.50000 0.85000 -0.62000
v -0.05000 0.83000 -0.12000
v 0.20000 0.83000 -0.12000
v 0.20000 0.86000 -0.12000
v -0.05000 0.86000 -0.12000
v -0.05000 0.83000 -0.08000
v 0.20000 0.83000 -0.08000
v 0.20000 0.86000 -0.08000
v -0.05000 0.86000 -0.08000
v 0.18000 0.96000 0.35000
v 0.26000 0.96000 0.35000
v 0.26000 1.08000 0.35000
v 0.18000 1.08000 0.35000
v 0.18000 0.96000 0.38000
v 0.26000 0.96000 0.38000
v 0.26000 1.08000 0.38000
v 0.18000 1.08000 0.38000
v -0.48000 0.31500 -0.12000
v -0.18000 0.31500 -0.12000
v -0.48000 0.29250 -0.08103
v -0.18000 0.29250 -0.08103
v -0.48000 0.24750 -0.08103
v -0.18000 0.24750 -0.08103
v -0.48000 0.22500 -0.12000
v -0.18000 0.22500 -0.12000
v -0.48000 0.24750 -0.15897
v -0.18000 0.24750 -0.15897
v -0.48000 0.29250 -0.15897
v -0.18000 0.29250 -0.15897
v -0.48000 0.27000 -0.12000
v -0.18000 0.27000 -0.12000
v -0.46000 0.31500 0.00000
v -0.20000 0.31500 0.00000
v -0.46000 0.29250 0.03897
v -0.20000 0.29250 0.03897
v -0.46000 0.24750 0.03897
v -0.20000 0.24750 0.03897
v -0.46000 0.22500 0.00000
v -0.20000 0.22500 0.00000
v -0.46000 0.24750 -0.03897
v -0.20000 0.24750 -0.03897
v -0.46000 0.29250 -0.03897
v -0.20000 0.29250 -0.03897
v -0.46000 0.27000 0.00000
v -0.20000 0.27000 0.00000
v -0.44000 0.37000 -0.06000
v -0.16000 0.37000 -0.06000
v -0.44000 0.35000 -0.02536
v -0.16000 0.35000 -0.02536
v -0.44000 0.31000 -0.02536
v -0.16000 0.31000 -0.02536
v -0.44000 0.29000 -0.06000
v -0.16000 0.29000 -0.06000
v -0.44000 0.31000 -0.09464
v -0.16000 0.31000 -0.09464
v -0.44000 0.35000 -0.09464
v -0.16000 0.35000 -0.09464
v -0.44000 0.33000 -0.06000
v -0.16000 0.33000 -0.06000
v -0.64000 0.83000 -0.19000
v -0.32000 0.83000 -0.19000
v -0.32000 0.87000 -0.19000
v -0.64000 0.87000 -0.19000
v -0.64000 0.83000 0.19000
v -0.32000 0.83000 0.19000
v -0.32000 0.87000 0.19000
v -0.64000 0.87000 0.19000
v -0.58000 0.87000 -0.13000
v -0.38000 0.87000 -0.13000
v -0.38000 0.93000 -0.13000
v -0.58000 0.93000 -0.13000
v -0.58000 0.87000 0.13000
v -0.38000 0.87000 0.13000
v -0.38000 0.93000 0.13000
v -0.58000 0.93000 0.13000
v -0.55000 0.93000 -0.15000
v -0.30000 0.93000 -0.15000
v -0.30000 1.02000 -0.15000
v -0.55000 1.02000 -0.15000
v -0.55000 0.93000 0.15000
v -0.30000 0.93000 0.15000
v -0.30000 1.02000 0.15000
v -0.55000 1.02000 0.15000
v -0.64000 0.94000 -0.12000
v -0.55000 0.94000 -0.12000
v -0.55000 1.01000 -0.12000
v -0.64000 1.01000 -0.12000
v -0.64000 0.94000 0.12000
v -0.55000 0.94000 0.12000
v -0.55000 1.01000 0.12000
v -0.64000 1.01000 0.12000
v -0.71000 0.95000 -0.08000
v -0.64000 0.95000 -0.08000
v -0.64000 1.00000 -0.08000
v -0.71000 1.00000 -0.08000
v -0.71000 0.95000 0.08000
v -0.64000 0.95000 0.08000
v -0.64000 1.00000 0.08000
v -0.71000 1.00000 0.08000
v -0.76000 0.96000 -0.04000
v -0.71000 0.96000 -0.04000
v -0.71000 0.99000 -0.04000
v -0.76000 0.99000 -0.04000
v -0.76000 0.96000 0.04000
v -0.71000 0.96000 0.04000
v -0.71000 0.99000 0.04000
v -0.76000 0.99000 0.04000
v -0.30000 0.93000 -0.13000
v -0.23000 0.93000 -0.13000
v -0.23000 0.98000 -0.13000
v -0.30000 0.98000 -0.13000
v -0.30000 0.93000 0.13000
v -0.23000 0.93000 0.13000
v -0.23000 0.98000 0.13000
v -0.30000 0.98000 0.13000
v -0.28000 0.98000 -0.03000
v -0.25000 0.98000 -0.03000
v -0.25000 1.00000 -0.03000
v -0.28000 1.00000 -0.03000
v -0.28000 0.98000 0.03000
v -0.25000 0.98000 0.03000
v -0.25000 1.00000 0.03000
v -0.28000 1.00000 0.03000
v -0.85500 0.73500 -0.43500
v -0.76500 0.73500 -0.43500
v -0.76500 0.83500 -0.43500
v -0.85500 0.83500 -0.43500
v -0.85500 0.73500 -0.42300
v -0.76500 0.73500 -0.42300
v -0.76500 0.83500 -0.42300
v -0.85500 0.83500 -0.42300
v -0.85500 0.73500 -0.43500
v -0.84300 0.73500 -0.43500
v -0.84300 0.83500 -0.43500
v -0.85500 0.83500 -0.43500
v -0.85500 0.73500 -0.34500
v -0.84300 0.73500 -0.34500
v -0.84300 0.83500 -0.34500
v -0.85500 0.83500 -0.34500
v 0.76500 0.73500 -0.43500
v 0.85500 0.73500 -0.43500
v 0.85500 0.83500 -0.43500
v 0.76500 0.83500 -0.43500
v 0.76500 0.73500 -0.42300
v 0.85500 0.73500 -0.42300
v 0.85500 0.83500 -0.42300
v 0.76500 0.83500 -0.42300
v 0.84300 0.73500 -0.43500
v 0.85500 0.73500 -0.43500
v 0.85500 0.83500 -0.43500
v 0.84300 0.83500 -0.43500
v 0.84300 0.73500 -0.34500
v 0.85500 0.73500 -0.34500
v 0.85500 0.83500 -0.34500
v 0.84300 0.83500 -0.34500
v -0.85500 0.73500 0.42300
v -0.76500 0.73500 0.42300
v -0.76500 0.83500 0.42300
v -0.85500 0.83500 0.42300
v -0.85500 0.73500 0.43500
v -0.76500 0.73500 0.43500
v -0.76500 0.83500 0.43500
v -0.85500 0.83500 0.43500
v -0.85500 0.73500 0.34500
v -0.84300 0.73500 0.34500
v -0.84300 0.83500 0.34500
v -0.85500 0.83500 0.34500
v -0.85500 0.73500 0.43500
v -0.84300 0.73500 0.43500
v -0.84300 0.83500 0.43500
v -0.85500 0.83500 0.43500
v 0.76500 0.73500 0.42300
v 0.85500 0.73500 0.42300
v 0.85500 0.83500 0.42300
v 0.76500 0.83500 0.42300
v 0.76500 0.73500 0.43500
v 0.85500 0.73500 0.43500
v 0.85500 0.83500 0.43500
v 0.76500 0.83500 0.43500
v 0.84300 0.73500 0.34500
v 0.85500 0.73500 0.34500
v 0.85500 0.83500 0.34500
v 0.84300 0.83500 0.34500
v 0.84300 0.73500 0.43500
v 0.85500 0.73500 0.43500
v 0.85500 0.83500 0.43500
v 0.84300 0.83500 0.43500
v 0.48000 0.78900 -0.56000
v 0.52000 0.78900 -0.56000
v 0.48000 0.77700 -0.53922
v 0.52000 0.77700 -0.53922
v 0.48000 0.75300 -0.53922
v 0.52000 0.75300 -0.53922
v 0.48000 0.74100 -0.56000
v 0.52000 0.74100 -0.56000
v 0.48000 0.75300 -0.58078
v 0.52000 0.75300 -0.58078
v 0.48000 0.77700 -0.58078
v 0.52000 0.77700 -0.58078
v 0.48000 0.76500 -0.56000
v 0.52000 0.76500 -0.56000
v 0.47000 0.74000 -0.63000
v 0.53000 0.74000 -0.63000
v 0.53000 0.79000 -0.63000
v 0.47000 0.79000 -0.63000
v 0.47000 0.74000 -0.57000
v 0.53000 0.74000 -0.57000
v 0.53000 0.79000 -0.57000
v 0.47000 0.79000 -0.57000
v 0.38000 0.75000 -0.53000
v 0.41000 0.75000 -0.53000
v 0.41000 0.78000 -0.53000
v 0.38000 0.78000 -0.53000
v 0.38000 0.75000 -0.44000
v 0.41000 0.75000 -0.44000
v 0.41000 0.78000 -0.44000
v 0.38000 0.78000 -0.44000
v 0.59000 0.75000 -0.53000
v 0.62000 0.75000 -0.53000
v 0.62000 0.78000 -0.53000
v 0.59000 0.78000 -0.53000
v 0.59000 0.75000 -0.44000
v 0.62000 0.75000 -0.44000
v 0.62000 0.78000 -0.44000
v 0.59000 0.78000 -0.44000
v -0.11000 0.83000 -0.15000
v -0.04000 0.83000 -0.15000
v -0.04000 0.90000 -0.15000
v -0.11000 0.90000 -0.15000
v -0.11000 0.83000 -0.05000
v -0.04000 0.83000 -0.05000
v -0.04000 0.90000 -0.05000
v -0.11000 0.90000 -0.05000
v 0.04000 0.99000 0.36000
v 0.20000 0.99000 0.36000
v 0.20000 1.05000 0.36000
v 0.04000 1.05000 0.36000
v 0.04000 0.99000 0.37500
v 0.20000 0.99000 0.37500
v 0.20000 1.05000 0.37500
v 0.04000 1.05000 0.37500
v 0.08000 0.23000 -0.14000
v 0.28000 0.23000 -0.14000
v 0.28000 0.28000 -0.14000
v 0.08000 0.28000 -0.14000
v 0.08000 0.23000 -0.02000
v 0.28000 0.23000 -0.02000
v 0.28000 0.28000 -0.02000
v 0.08000 0.28000 -0.02000
v 0.08000 0.23000 0.03000
v 0.28000 0.23000 0.03000
v 0.28000 0.28000 0.03000
v 0.08000 0.28000 0.03000
v 0.08000 0.23000 0.15000
v 0.28000 0.23000 0.15000
v 0.28000 0.28000 0.15000
v 0.08000 0.28000 0.15000
v 0.12000 0.28000 -0.10000
v 0.24000 0.28000 -0.10000
v 0.24000 0.33000 -0.10000
v 0.12000 0.33000 -0.10000
v 0.12000 0.28000 0.10000
v 0.24000 0.28000 0.10000
v 0.24000 0.33000 0.10000
v 0.12000 0.33000 0.10000
v 0.68000 0.83000 0.08000
v 0.74000 0.83000 0.08000
v 0.74000 0.98000 0.08000
v 0.68000 0.98000 0.08000
v 0.68000 0.83000 0.12000
v 0.74000 0.83000 0.12000
v 0.74000 0.98000 0.12000
v 0.68000 0.98000 0.12000
v 0.68000 0.83000 0.24000
v 0.74000 0.83000 0.24000
v 0.74000 0.98000 0.24000
v 0.68000 0.98000 0.24000
v 0.68000 0.83000 0.28000
v 0.74000 0.83000 0.28000
v 0.74000 0.98000 0.28000
v 0.68000 0.98000 0.28000
v 0.69000 0.96000 0.16000
v 0.83000 0.96000 0.16000
v 0.83000 1.00000 0.16000
v 0.69000 1.00000 0.16000
v 0.69000 0.96000 0.20000
v 0.83000 0.96000 0.20000
v 0.83000 1.00000 0.20000
v 0.69000 1.00000 0.20000
v 0.82000 0.96000 0.17000
v 0.84000 0.96000 0.17000
v 0.84000 1.09000 0.17000
v 0.82000 1.09000 0.17000
v 0.82000 0.96000 0.19000
v 0.84000 0.96000 0.19000
v 0.84000 1.09000 0.19000
v 0.82000 1.09000 0.19000
v 0.83000 1.07000 0.17000
v 0.88000 1.07000 0.17000
v 0.88000 1.09000 0.17000
v 0.83000 1.09000 0.17000
v 0.83000 1.07000 0.19000
v 0.88000 1.07000 0.19000
v 0.88000 1.09000 0.19000
v 0.83000 1.09000 0.19000
v -0.71200 0.68000 -0.39200
v -0.68800 0.68000 -0.39200
v -0.68800 0.71000 -0.39200
v -0.71200 0.71000 -0.39200
v -0.71200 0.68000 -0.38000
v -0.68800 0.68000 -0.38000
v -0.68800 0.71000 -0.38000
v -0.71200 0.71000 -0.38000
v 0.68800 0.68000 -0.39200
v 0.71200 0.68000 -0.39200
v 0.71200 0.71000 -0.39200
v 0.68800 0.71000 -0.39200
v 0.68800 0.68000 -0.38000
v 0.71200 0.68000 -0.38000
v 0.71200 0.71000 -0.38000
v 0.68800 0.71000 -0.38000
v -0.71200 0.68000 0.38000
v -0.68800 0.68000 0.38000
v -0.68800 0.71000 0.38000
v -0.71200 0.71000 0.38000
v -0.71200 0.68000 0.39200
v -0.68800 0.68000 0.39200
v -0.68800 0.71000 0.39200
v -0.71200 0.71000 0.39200
v 0.68800 0.68000 0.38000
v 0.71200 0.68000 0.38000
v 0.71200 0.71000 0.38000
v 0.68800 0.71000 0.38000
v 0.68800 0.68000 0.39200
v 0.71200 0.68000 0.39200
v 0.71200 0.71000 0.39200
v 0.68800 0.71000 0.39200
v 0.73000 1.13000 0.18000
v 0.80000 1.13000 0.18000
v 0.73000 1.10135 0.26817
v 0.80000 1.10135 0.26817
v 0.73000 1.02635 0.32266
v 0.80000 1.02635 0.32266
v 0.73000 0.93365 0.32266
v 0.80000 0.93365 0.32266
v 0.73000 0.85865 0.26817
v 0.80000 0.85865 0.26817
v 0.73000 0.83000 0.18000
v 0.80000 0.83000 0.18000
v 0.73000 0.85865 0.09183
v 0.80000 0.85865 0.09183
v 0.73000 0.93365 0.03734
v 0.80000 0.93365 0.03734
v 0.73000 1.02635 0.03734
v 0.80000 1.02635 0.03734
v 0.73000 1.10135 0.09183
v 0.80000 1.10135 0.09183
v 0.73000 0.98000 0.18000
v 0.80000 0.98000 0.18000
v -0.22000 0.83000 0.12000
v -0.06000 0.83000 0.12000
v -0.06000 0.86000 0.12000
v -0.22000 0.86000 0.12000
v -0.22000 0.83000 0.26000
v -0.06000 0.83000 0.26000
v -0.06000 0.86000 0.26000
v -0.22000 0.86000 0.26000
v 0.36000 0.23000 -0.08000
v 0.54000 0.23000 -0.08000
v 0.54000 0.36000 -0.08000
v 0.36000 0.36000 -0.08000
v 0.36000 0.23000 0.12000
v 0.54000 0.23000 0.12000
v 0.54000 0.36000 0.12000
v 0.36000 0.36000 0.12000

vt 0.00000 0.00000
vt 1.00000 0.00000
vt 1.00000 1.00000
vt 0.00000 1.00000
vt 0.00000 0.00000
vt 1.00000 0.00000
vt 1.00000 1.00000
vt 0.00000 1.00000
vt 0.00000 0.00000
vt 1.00000 0.00000
vt 1.00000 1.00000
vt 0.00000 1.00000
vt 0.00000 0.00000
vt 1.00000 0.00000
vt 1.00000 1.00000
vt 0.00000 1.00000
vt 0.00000 0.00000
vt 1.00000 0.00000
vt 1.00000 1.00000
vt 0.00000 1.00000
vt 0.00000 0.00000
vt 1.00000 0.00000
vt 1.00000 1.00000
vt 0.00000 1.00000
vt 0.00000 0.00000
vt 1.00000 0.00000
vt 1.00000 1.00000
vt 0.00000 1.00000
vt 0.00000 0.00000
vt 1.00000 0.00000
vt 1.00000 1.00000
vt 0.00000 1.00000
vt 0.00000 0.00000
vt 1.00000 0.00000
vt 1.00000 1.00000
vt 0.00000 1.00000
vt 0.00000 0.00000
vt 1.00000 0.00000
vt 1.00000 1.00000
vt 0.00000 1.00000
vt 0.00000 0.00000
vt 1.00000 0.00000
vt 1.00000 1.00000
vt 0.00000 1.00000
vt 0.00000 0.00000
vt 1.00000 0.00000
vt 1.00000 1.00000
vt 0.00000 1.00000
vt 0.00000 0.00000
vt 1.00000 0.00000
vt 1.00000 1.00000
vt 0.00000 1.00000
vt 0.00000 0.00000
vt 1.00000 0.00000
vt 1.00000 1.00000
vt 0.00000 1.00000
vt 0.00000 0.00000
vt 1.00000 0.00000
vt 1.00000 1.00000
vt 0.00000 1.00000
vt 0.00000 0.00000
vt 1.00000 0.00000
vt 1.00000 1.00000
vt 0.00000 1.00000
vt 0.00000 0.00000
vt 1.00000 0.00000
vt 1.00000 1.00000
vt 0.00000 1.00000
vt 0.00000 0.00000
vt 1.00000 0.00000
vt 1.00000 1.00000
vt 0.00000 1.00000
vt 0.00000 0.00000
vt 1.00000 0.00000
vt 1.00000 1.00000
vt 0.00000 1.00000
vt 0.00000 0.00000
vt 1.00000 0.00000
vt 1.00000 1.00000
vt 0.00000 1.00000
vt 0.00000 0.00000
vt 1.00000 0.00000
vt 1.00000 1.00000
vt 0.00000 1.00000
vt 0.00000 0.00000
vt 1.00000 0.00000
vt 1.00000 1.00000
vt 0.00000 1.00000
vt 0.00000 0.00000
vt 1.00000 0.00000
vt 1.00000 1.00000
vt 0.00000 1.00000
vt 0.00000 0.00000
vt 1.00000 0.00000
vt 1.00000 1.00000
vt 0.00000 1.00000
vt 0.00000 0.00000
vt 1.00000 0.00000
vt 1.00000 1.00000
vt 0.00000 1.00000
vt 0.00000 0.00000
vt 1.00000 0.00000
vt 1.00000 1.00000
vt 0.00000 1.00000
vt 0.00000 0.00000
vt 1.00000 0.00000
vt 1.00000 1.00000
vt 0.00000 1.00000
vt 0.00000 0.00000
vt 1.00000 0.00000
vt 1.00000 1.00000
vt 0.00000 1.00000
vt 0.00000 0.00000
vt 1.00000 0.00000
vt 1.00000 1.00000
vt 0.00000 1.00000
vt 0.00000 0.00000
vt 1.00000 0.00000
vt 1.00000 1.00000
vt 0.00000 1.00000
vt 0.00000 0.00000
vt 1.00000 0.00000
vt 1.00000 1.00000
vt 0.00000 1.00000
vt 0.00000 0.00000
vt 1.00000 0.00000
vt 1.00000 1.00000
vt 0.00000 1.00000
vt 0.00000 0.00000
vt 1.00000 0.00000
vt 1.00000 1.00000
vt 0.00000 1.00000
vt 0.00000 0.00000
vt 1.00000 0.00000
vt 1.00000 1.00000
vt 0.00000 1.00000
vt 0.00000 0.00000
vt 1.00000 0.00000
vt 1.00000 1.00000
vt 0.00000 1.00000
vt 0.00000 0.00000
vt 1.00000 0.00000
vt 1.00000 1.00000
vt 0.00000 1.00000
vt 0.00000 0.00000
vt 1.00000 0.00000
vt 1.00000 1.00000
vt 0.00000 1.00000
vt 0.00000 0.00000
vt 1.00000 0.00000
vt 1.00000 1.00000
vt 0.00000 1.00000
vt 0.00000 0.00000
vt 1.00000 0.00000
vt 1.00000 1.00000
vt 0.00000 1.00000
vt 0.00000 0.00000
vt 1.00000 0.00000
vt 1.00000 1.00000
vt 0.00000 1.00000
vt 0.00000 0.00000
vt 1.00000 0.00000
vt 1.00000 1.00000
vt 0.00000 1.00000
vt 0.00000 0.00000
vt 1.00000 0.00000
vt 1.00000 1.00000
vt 0.00000 1.00000
vt 0.00000 0.00000
vt 1.00000 0.00000
vt 1.00000 1.00000
vt 0.00000 1.00000
vt 0.00000 0.00000
vt 1.00000 0.00000
vt 1.00000 1.00000
vt 0.00000 1.00000
vt 0.00000 0.00000
vt 1.00000 0.00000
vt 1.00000 1.00000
vt 0.00000 1.00000
vt 0.00000 0.00000
vt 1.00000 0.00000
vt 1.00000 1.00000
vt 0.00000 1.00000
vt 0.00000 0.00000
vt 1.00000 0.00000
vt 1.00000 1.00000
vt 0.00000 1.00000
vt 0.00000 0.00000
vt 1.00000 0.00000
vt 1.00000 1.00000
vt 0.00000 1.00000
vt 0.00000 0.00000
vt 1.00000 0.00000
vt 1.00000 1.00000
vt 0.00000 1.00000
vt 0.00000 0.00000
vt 1.00000 0.00000
vt 1.00000 1.00000
vt 0.00000 1.00000
vt 0.00000 0.00000
vt 1.00000 0.00000
vt 1.00000 1.00000
vt 0.00000 1.00000
vt 0.00000 0.00000
vt 1.00000 0.00000
vt 1.00000 1.00000
vt 0.00000 1.00000
vt 0.00000 0.00000
vt 1.00000 0.00000
vt 1.00000 1.00000
vt 0.00000 1.00000
vt 0.00000 0.00000
vt 1.00000 0.00000
vt 1.00000 1.00000
vt 0.00000 1.00000
vt 0.00000 0.00000
vt 1.00000 0.00000
vt 1.00000 1.00000
vt 0.00000 1.00000
vt 0.00000 0.00000
vt 1.00000 0.00000
vt 1.00000 1.00000
vt 0.00000 1.00000
vt 0.00000 0.00000
vt 1.00000 0.00000
vt 1.00000 1.00000
vt 0.00000 1.00000
vt 0.00000 0.00000
vt 1.00000 0.00000
vt 1.00000 1.00000
vt 0.00000 1.00000
vt 0.00000 0.00000
vt 1.00000 0.00000
vt 1.00000 1.00000
vt 0.00000 1.00000
vt 0.00000 0.00000
vt 1.00000 0.00000
vt 1.00000 1.00000
vt 0.00000 1.00000
vt 0.00000 0.00000
vt 1.00000 0.00000
vt 1.00000 1.00000
vt 0.00000 1.00000
vt 0.00000 0.00000
vt 1.00000 0.00000
vt 1.00000 1.00000
vt 0.00000 1.00000
vt 0.00000 0.00000
vt 1.00000 0.00000
vt 1.00000 1.00000
vt 0.00000 1.00000
vt 0.00000 0.00000
vt 1.00000 0.00000
vt 1.00000 1.00000
vt 0.00000 1.00000
vt 0.00000 0.00000
vt 1.00000 0.00000
vt 1.00000 1.00000
vt 0.00000 1.00000
vt 0.00000 0.00000
vt 1.00000 0.00000
vt 1.00000 1.00000
vt 0.00000 1.00000
vt 0.00000 0.00000
vt 1.00000 0.00000
vt 1.00000 1.00000
vt 0.00000 1.00000
vt 0.00000 0.00000
vt 1.00000 0.00000
vt 1.00000 1.00000
vt 0.00000 1.00000
vt 0.00000 0.00000
vt 1.00000 0.00000
vt 1.00000 1.00000
vt 0.00000 1.00000
vt 0.00000 0.00000
vt 1.00000 0.00000
vt 1.00000 1.00000
vt 0.00000 1.00000
vt 0.00000 0.00000
vt 1.00000 0.00000
vt 1.00000 1.00000
vt 0.00000 1.00000
vt 0.00000 0.00000
vt 1.00000 0.00000
vt 1.00000 1.00000
vt 0.00000 1.00000
vt 0.00000 0.00000
vt 1.00000 0.00000
vt 1.00000 1.00000
vt 0.00000 1.00000
vt 0.00000 0.00000
vt 1.00000 0.00000
vt 1.00000 1.00000
vt 0.00000 1.00000
vt 0.00000 0.00000
vt 1.00000 0.00000
vt 1.00000 1.00000
vt 0.00000 1.00000
vt 0.00000 0.00000
vt 1.00000 0.00000
vt 1.00000 1.00000
vt 0.00000 1.00000
vt 0.00000 0.00000
vt 1.00000 0.00000
vt 1.00000 1.00000
vt 0.00000 1.00000
vt 0.00000 0.00000
vt 1.00000 0.00000
vt 1.00000 1.00000
vt 0.00000 1.00000

vn 0.00000 0.00000 -1.00000
vn 0.00000 0.00000 1.00000
vn -1.00000 0.00000 0.00000
vn 1.00000 0.00000 0.00000
vn 0.00000 -1.00000 0.00000
vn 0.00000 1.00000 0.00000
vn 0.00000 0.00000 -1.00000
vn 0.00000 0.00000 1.00000
vn -1.00000 0.00000 0.00000
vn 1.00000 0.00000 0.00000
vn 0.00000 -1.00000 0.00000
vn 0.00000 1.00000 0.00000
vn 0.00000 0.00000 -1.00000
vn 0.00000 0.00000 1.00000
vn -1.00000 0.00000 0.00000
vn 1.00000 0.00000 0.00000
vn 0.00000 -1.00000 0.00000
vn 0.00000 1.00000 0.00000
vn 0.00000 0.00000 -1.00000
vn 0.00000 0.00000 1.00000
vn -1.00000 0.00000 0.00000
vn 1.00000 0.00000 0.00000
vn 0.00000 -1.00000 0.00000
vn 0.00000 1.00000 0.00000
vn 0.00000 0.00000 -1.00000
vn 0.00000 0.00000 1.00000
vn -1.00000 0.00000 0.00000
vn 1.00000 0.00000 0.00000
vn 0.00000 -1.00000 0.00000
vn 0.00000 1.00000 0.00000
vn 0.00000 0.00000 -1.00000
vn 0.00000 0.00000 1.00000
vn -1.00000 0.00000 0.00000
vn 1.00000 0.00000 0.00000
vn 0.00000 -1.00000 0.00000
vn 0.00000 1.00000 0.00000
vn 0.00000 0.00000 -1.00000
vn 0.00000 0.00000 1.00000
vn -1.00000 0.00000 0.00000
vn 1.00000 0.00000 0.00000
vn 0.00000 -1.00000 0.00000
vn 0.00000 1.00000 0.00000
vn 0.00000 0.00000 -1.00000
vn 0.00000 0.00000 1.00000
vn -1.00000 0.00000 0.00000
vn 1.00000 0.00000 0.00000
vn 0.00000 -1.00000 0.00000
vn 0.00000 1.00000 0.00000
vn 0.00000 0.00000 -1.00000
vn 0.00000 0.00000 1.00000
vn -1.00000 0.00000 0.00000
vn 1.00000 0.00000 0.00000
vn 0.00000 -1.00000 0.00000
vn 0.00000 1.00000 0.00000
vn 0.00000 0.00000 -1.00000
vn 0.00000 0.00000 1.00000
vn -1.00000 0.00000 0.00000
vn 1.00000 0.00000 0.00000
vn 0.00000 -1.00000 0.00000
vn 0.00000 1.00000 0.00000
vn 0.00000 0.00000 -1.00000
vn 0.00000 0.00000 1.00000
vn -1.00000 0.00000 0.00000
vn 1.00000 0.00000 0.00000
vn 0.00000 -1.00000 0.00000
vn 0.00000 1.00000 0.00000
vn 0.00000 0.00000 -1.00000
vn 0.00000 0.00000 1.00000
vn -1.00000 0.00000 0.00000
vn 1.00000 0.00000 0.00000
vn 0.00000 -1.00000 0.00000
vn 0.00000 1.00000 0.00000
vn 0.00000 0.00000 -1.00000
vn 0.00000 0.00000 1.00000
vn -1.00000 0.00000 0.00000
vn 1.00000 0.00000 0.00000
vn 0.00000 -1.00000 0.00000
vn 0.00000 1.00000 0.00000
vn 0.00000 0.00000 -1.00000
vn 0.00000 0.00000 1.00000
vn -1.00000 0.00000 0.00000
vn 1.00000 0.00000 0.00000
vn 0.00000 -1.00000 0.00000
vn 0.00000 1.00000 0.00000
vn 0.00000 0.00000 -1.00000
vn 0.00000 0.00000 1.00000
vn -1.00000 0.00000 0.00000
vn 1.00000 0.00000 0.00000
vn 0.00000 -1.00000 0.00000
vn 0.00000 1.00000 0.00000
vn 0.00000 0.00000 -1.00000
vn 0.00000 0.00000 1.00000
vn -1.00000 0.00000 0.00000
vn 1.00000 0.00000 0.00000
vn 0.00000 -1.00000 0.00000
vn 0.00000 1.00000 0.00000
vn 0.00000 0.00000 -1.00000
vn 0.00000 0.00000 1.00000
vn -1.00000 0.00000 0.00000
vn 1.00000 0.00000 0.00000
vn 0.00000 -1.00000 0.00000
vn 0.00000 1.00000 0.00000
vn 0.00000 0.00000 -1.00000
vn 0.00000 0.00000 1.00000
vn -1.00000 0.00000 0.00000
vn 1.00000 0.00000 0.00000
vn 0.00000 -1.00000 0.00000
vn 0.00000 1.00000 0.00000
vn 0.00000 0.00000 -1.00000
vn 0.00000 0.00000 1.00000
vn -1.00000 0.00000 0.00000
vn 1.00000 0.00000 0.00000
vn 0.00000 -1.00000 0.00000
vn 0.00000 1.00000 0.00000
vn 0.00000 0.00000 -1.00000
vn 0.00000 0.00000 1.00000
vn -1.00000 0.00000 0.00000
vn 1.00000 0.00000 0.00000
vn 0.00000 -1.00000 0.00000
vn 0.00000 1.00000 0.00000
vn 0.00000 0.00000 -1.00000
vn 0.00000 0.00000 1.00000
vn -1.00000 0.00000 0.00000
vn 1.00000 0.00000 0.00000
vn 0.00000 -1.00000 0.00000
vn 0.00000 1.00000 0.00000
vn 0.00000 0.00000 -1.00000
vn 0.00000 0.00000 1.00000
vn -1.00000 0.00000 0.00000
vn 1.00000 0.00000 0.00000
vn 0.00000 -1.00000 0.00000
vn 0.00000 1.00000 0.00000
vn 0.00000 0.00000 -1.00000
vn 0.00000 0.00000 1.00000
vn -1.00000 0.00000 0.00000
vn 1.00000 0.00000 0.00000
vn 0.00000 -1.00000 0.00000
vn 0.00000 1.00000 0.00000
vn 0.00000 0.00000 -1.00000
vn 0.00000 0.00000 1.00000
vn -1.00000 0.00000 0.00000
vn 1.00000 0.00000 0.00000
vn 0.00000 -1.00000 0.00000
vn 0.00000 1.00000 0.00000
vn 0.00000 0.00000 -1.00000
vn 0.00000 0.00000 1.00000
vn -1.00000 0.00000 0.00000
vn 1.00000 0.00000 0.00000
vn 0.00000 -1.00000 0.00000
vn 0.00000 1.00000 0.00000
vn 0.00000 0.00000 -1.00000
vn 0.00000 0.00000 1.00000
vn -1.00000 0.00000 0.00000
vn 1.00000 0.00000 0.00000
vn 0.00000 -1.00000 0.00000
vn 0.00000 1.00000 0.00000
vn 0.00000 0.00000 -1.00000
vn 0.00000 0.00000 1.00000
vn -1.00000 0.00000 0.00000
vn 1.00000 0.00000 0.00000
vn 0.00000 -1.00000 0.00000
vn 0.00000 1.00000 0.00000
vn 0.00000 0.00000 -1.00000
vn 0.00000 0.00000 1.00000
vn -1.00000 0.00000 0.00000
vn 1.00000 0.00000 0.00000
vn 0.00000 -1.00000 0.00000
vn 0.00000 1.00000 0.00000
vn 0.00000 0.00000 -1.00000
vn 0.00000 0.00000 1.00000
vn -1.00000 0.00000 0.00000
vn 1.00000 0.00000 0.00000
vn 0.00000 -1.00000 0.00000
vn 0.00000 1.00000 0.00000
vn 0.00000 0.00000 -1.00000
vn 0.00000 0.00000 1.00000
vn -1.00000 0.00000 0.00000
vn 1.00000 0.00000 0.00000
vn 0.00000 -1.00000 0.00000
vn 0.00000 1.00000 0.00000
vn 0.00000 0.00000 -1.00000
vn 0.00000 0.00000 1.00000
vn -1.00000 0.00000 0.00000
vn 1.00000 0.00000 0.00000
vn 0.00000 -1.00000 0.00000
vn 0.00000 1.00000 0.00000
vn 0.00000 0.00000 -1.00000
vn 0.00000 0.00000 1.00000
vn -1.00000 0.00000 0.00000
vn 1.00000 0.00000 0.00000
vn 0.00000 -1.00000 0.00000
vn 0.00000 1.00000 0.00000
vn 0.00000 0.00000 -1.00000
vn 0.00000 0.00000 1.00000
vn -1.00000 0.00000 0.00000
vn 1.00000 0.00000 0.00000
vn 0.00000 -1.00000 0.00000
vn 0.00000 1.00000 0.00000
vn 0.00000 0.00000 -1.00000
vn 0.00000 0.00000 1.00000
vn -1.00000 0.00000 0.00000
vn 1.00000 0.00000 0.00000
vn 0.00000 -1.00000 0.00000
vn 0.00000 1.00000 0.00000
vn 0.00000 0.00000 -1.00000
vn 0.00000 0.00000 1.00000
vn -1.00000 0.00000 0.00000
vn 1.00000 0.00000 0.00000
vn 0.00000 -1.00000 0.00000
vn 0.00000 1.00000 0.00000
vn 0.86608 -0.00000 0.49990
vn 0.00000 -0.00000 1.00000
vn -0.86608 0.00000 0.49990
vn -0.86608 0.00000 -0.49990
vn 0.00000 0.00000 -1.00000
vn 0.86608 0.00000 -0.49990
vn 0.00000 -1.00000 0.00000
vn 0.00000 1.00000 0.00000
vn 0.00000 0.00000 -1.00000
vn 0.00000 0.00000 1.00000
vn -1.00000 0.00000 0.00000
vn 1.00000 0.00000 0.00000
vn 0.00000 -1.00000 0.00000
vn 0.00000 1.00000 0.00000
vn 0.00000 0.00000 -1.00000
vn 0.00000 0.00000 1.00000
vn -1.00000 0.00000 0.00000
vn 1.00000 0.00000 0.00000
vn 0.00000 -1.00000 0.00000
vn 0.00000 1.00000 0.00000
vn 0.00000 0.86602 0.50001
vn 0.00000 0.00000 1.00000
vn 0.00000 -0.86602 0.50001
vn 0.00000 -0.86602 -0.50001
vn 0.00000 0.00000 -1.00000
vn 0.00000 0.86602 -0.50001
vn -1.00000 0.00000 0.00000
vn 1.00000 0.00000 0.00000
vn 0.00000 0.86602 0.50001
vn 0.00000 0.00000 1.00000
vn 0.00000 -0.86602 0.50001
vn 0.00000 -0.86602 -0.50001
vn 0.00000 0.00000 -1.00000
vn 0.00000 0.86602 -0.50001
vn -1.00000 0.00000 0.00000
vn 1.00000 0.00000 0.00000
vn 0.00000 0.86602 0.50001
vn 0.00000 0.00000 1.00000
vn 0.00000 -0.86602 0.50001
vn 0.00000 -0.86602 -0.50001
vn 0.00000 0.00000 -1.00000
vn 0.00000 0.86602 -0.50001
vn -1.00000 0.00000 0.00000
vn 1.00000 0.00000 0.00000
vn 0.00000 0.00000 -1.00000
vn 0.00000 0.00000 1.00000
vn -1.00000 0.00000 0.00000
vn 1.00000 0.00000 0.00000
vn 0.00000 -1.00000 0.00000
vn 0.00000 1.00000 0.00000
vn 0.00000 0.00000 -1.00000
vn 0.00000 0.00000 1.00000
vn -1.00000 0.00000 0.00000
vn 1.00000 0.00000 0.00000
vn 0.00000 -1.00000 0.00000
vn 0.00000 1.00000 0.00000
vn 0.00000 0.00000 -1.00000
vn 0.00000 0.00000 1.00000
vn -1.00000 0.00000 0.00000
vn 1.00000 0.00000 0.00000
vn 0.00000 -1.00000 0.00000
vn 0.00000 1.00000 0.00000
vn 0.00000 0.00000 -1.00000
vn 0.00000 0.00000 1.00000
vn -1.00000 0.00000 0.00000
vn 1.00000 0.00000 0.00000
vn 0.00000 -1.00000 0.00000
vn 0.00000 1.00000 0.00000
vn 0.00000 0.00000 -1.00000
vn 0.00000 0.00000 1.00000
vn -1.00000 0.00000 0.00000
vn 1.00000 0.00000 0.00000
vn 0.00000 -1.00000 0.00000
vn 0.00000 1.00000 0.00000
vn 0.00000 0.00000 -1.00000
vn 0.00000 0.00000 1.00000
vn -1.00000 0.00000 0.00000
vn 1.00000 0.00000 0.00000
vn 0.00000 -1.00000 0.00000
vn 0.00000 1.00000 0.00000
vn 0.00000 0.00000 -1.00000
vn 0.00000 0.00000 1.00000
vn -1.00000 0.00000 0.00000
vn 1.00000 0.00000 0.00000
vn 0.00000 -1.00000 0.00000
vn 0.00000 1.00000 0.00000
vn 0.00000 0.00000 -1.00000
vn 0.00000 0.00000 1.00000
vn -1.00000 0.00000 0.00000
vn 1.00000 0.00000 0.00000
vn 0.00000 -1.00000 0.00000
vn 0.00000 1.00000 0.00000
vn 0.00000 0.00000 -1.00000
vn 0.00000 0.00000 1.00000
vn -1.00000 0.00000 0.00000
vn 1.00000 0.00000 0.00000
vn 0.00000 -1.00000 0.00000
vn 0.00000 1.00000 0.00000
vn 0.00000 0.00000 -1.00000
vn 0.00000 0.00000 1.00000
vn -1.00000 0.00000 0.00000
vn 1.00000 0.00000 0.00000
vn 0.00000 -1.00000 0.00000
vn 0.00000 1.00000 0.00000
vn 0.00000 0.00000 -1.00000
vn 0.00000 0.00000 1.00000
vn -1.00000 0.00000 0.00000
vn 1.00000 0.00000 0.00000
vn 0.00000 -1.00000 0.00000
vn 0.00000 1.00000 0.00000
vn 0.00000 0.00000 -1.00000
vn 0.00000 0.00000 1.00000
vn -1.00000 0.00000 0.00000
vn 1.00000 0.00000 0.00000
vn 0.00000 -1.00000 0.00000
vn 0.00000 1.00000 0.00000
vn 0.00000 0.00000 -1.00000
vn 0.00000 0.00000 1.00000
vn -1.00000 0.00000 0.00000
vn 1.00000 0.00000 0.00000
vn 0.00000 -1.00000 0.00000
vn 0.00000 1.00000 0.00000
vn 0.00000 0.00000 -1.00000
vn 0.00000 0.00000 1.00000
vn -1.00000 0.00000 0.00000
vn 1.00000 0.00000 0.00000
vn 0.00000 -1.00000 0.00000
vn 0.00000 1.00000 0.00000
vn 0.00000 0.00000 -1.00000
vn 0.00000 0.00000 1.00000
vn -1.00000 0.00000 0.00000
vn 1.00000 0.00000 0.00000
vn 0.00000 -1.00000 0.00000
vn 0.00000 1.00000 0.00000
vn 0.00000 0.00000 -1.00000
vn 0.00000 0.00000 1.00000
vn -1.00000 0.00000 0.00000
vn 1.00000 0.00000 0.00000
vn 0.00000 -1.00000 0.00000
vn 0.00000 1.00000 0.00000
vn 0.00000 0.86598 0.50008
vn 0.00000 0.00000 1.00000
vn 0.00000 -0.86598 0.50008
vn 0.00000 -0.86598 -0.50008
vn 0.00000 0.00000 -1.00000
vn 0.00000 0.86598 -0.50008
vn -1.00000 0.00000 0.00000
vn 1.00000 0.00000 0.00000
vn 0.00000 0.00000 -1.00000
vn 0.00000 0.00000 1.00000
vn -1.00000 0.00000 0.00000
vn 1.00000 0.00000 0.00000
vn 0.00000 -1.00000 0.00000
vn 0.00000 1.00000 0.00000
vn 0.00000 0.00000 -1.00000
vn 0.00000 0.00000 1.00000
vn -1.00000 0.00000 0.00000
vn 1.00000 0.00000 0.00000
vn 0.00000 -1.00000 0.00000
vn 0.00000 1.00000 0.00000
vn 0.00000 0.00000 -1.00000
vn 0.00000 0.00000 1.00000
vn -1.00000 0.00000 0.00000
vn 1.00000 0.00000 0.00000
vn 0.00000 -1.00000 0.00000
vn 0.00000 1.00000 0.00000
vn 0.00000 0.00000 -1.00000
vn 0.00000 0.00000 1.00000
vn -1.00000 0.00000 0.00000
vn 1.00000 0.00000 0.00000
vn 0.00000 -1.00000 0.00000
vn 0.00000 1.00000 0.00000
vn 0.00000 0.00000 -1.00000
vn 0.00000 0.00000 1.00000
vn -1.00000 0.00000 0.00000
vn 1.00000 0.00000 0.00000
vn 0.00000 -1.00000 0.00000
vn 0.00000 1.00000 0.00000
vn 0.00000 0.00000 -1.00000
vn 0.00000 0.00000 1.00000
vn -1.00000 0.00000 0.00000
vn 1.00000 0.00000 0.00000
vn 0.00000 -1.00000 0.00000
vn 0.00000 1.00000 0.00000
vn 0.00000 0.00000 -1.00000
vn 0.00000 0.00000 1.00000
vn -1.00000 0.00000 0.00000
vn 1.00000 0.00000 0.00000
vn 0.00000 -1.00000 0.00000
vn 0.00000 1.00000 0.00000
vn 0.00000 0.00000 -1.00000
vn 0.00000 0.00000 1.00000
vn -1.00000 0.00000 0.00000
vn 1.00000 0.00000 0.00000
vn 0.00000 -1.00000 0.00000
vn 0.00000 1.00000 0.00000
vn 0.00000 0.00000 -1.00000
vn 0.00000 0.00000 1.00000
vn -1.00000 0.00000 0.00000
vn 1.00000 0.00000 0.00000
vn 0.00000 -1.00000 0.00000
vn 0.00000 1.00000 0.00000
vn 0.00000 0.00000 -1.00000
vn 0.00000 0.00000 1.00000
vn -1.00000 0.00000 0.00000
vn 1.00000 0.00000 0.00000
vn 0.00000 -1.00000 0.00000
vn 0.00000 1.00000 0.00000
vn 0.00000 0.00000 -1.00000
vn 0.00000 0.00000 1.00000
vn -1.00000 0.00000 0.00000
vn 1.00000 0.00000 0.00000
vn 0.00000 -1.00000 0.00000
vn 0.00000 1.00000 0.00000
vn 0.00000 0.00000 -1.00000
vn 0.00000 0.00000 1.00000
vn -1.00000 0.00000 0.00000
vn 1.00000 0.00000 0.00000
vn 0.00000 -1.00000 0.00000
vn 0.00000 1.00000 0.00000
vn 0.00000 0.00000 -1.00000
vn 0.00000 0.00000 1.00000
vn -1.00000 0.00000 0.00000
vn 1.00000 0.00000 0.00000
vn 0.00000 -1.00000 0.00000
vn 0.00000 1.00000 0.00000
vn 0.00000 0.00000 -1.00000
vn 0.00000 0.00000 1.00000
vn -1.00000 0.00000 0.00000
vn 1.00000 0.00000 0.00000
vn 0.00000 -1.00000 0.00000
vn 0.00000 1.00000 0.00000
vn 0.00000 0.00000 -1.00000
vn 0.00000 0.00000 1.00000
vn -1.00000 0.00000 0.00000
vn 1.00000 0.00000 0.00000
vn 0.00000 -1.00000 0.00000
vn 0.00000 1.00000 0.00000
vn 0.00000 0.00000 -1.00000
vn 0.00000 0.00000 1.00000
vn -1.00000 0.00000 0.00000
vn 1.00000 0.00000 0.00000
vn 0.00000 -1.00000 0.00000
vn 0.00000 1.00000 0.00000
vn 0.00000 0.00000 -1.00000
vn 0.00000 0.00000 1.00000
vn -1.00000 0.00000 0.00000
vn 1.00000 0.00000 0.00000
vn 0.00000 -1.00000 0.00000
vn 0.00000 1.00000 0.00000
vn 0.00000 0.95105 0.30903
vn 0.00000 0.58778 0.80902
vn 0.00000 0.00000 1.00000
vn 0.00000 -0.58778 0.80902
vn 0.00000 -0.95105 0.30903
vn 0.00000 -0.95105 -0.30903
vn 0.00000 -0.58778 -0.80902
vn 0.00000 0.00000 -1.00000
vn 0.00000 0.58778 -0.80902
vn 0.00000 0.95105 -0.30903
vn -1.00000 0.00000 0.00000
vn 1.00000 0.00000 0.00000
vn 0.00000 0.00000 -1.00000
vn 0.00000 0.00000 1.00000
vn -1.00000 0.00000 0.00000
vn 1.00000 0.00000 0.00000
vn 0.00000 -1.00000 0.00000
vn 0.00000 1.00000 0.00000
vn 0.00000 0.00000 -1.00000
vn 0.00000 0.00000 1.00000
vn -1.00000 0.00000 0.00000
vn 1.00000 0.00000 0.00000
vn 0.00000 -1.00000 0.00000
vn 0.00000 1.00000 0.00000

g Wood
usemtl Wood
s 1
f 1/1/1 4/4/1 3/3/1
f 1/1/1 3/3/1 2/2/1
f 6/1/2 7/4/2 8/3/2
f 6/1/2 8/3/2 5/2/2
f 5/1/3 8/4/3 4/3/3
f 5/1/3 4/3/3 1/2/3
f 2/1/4 3/4/4 7/3/4
f 2/1/4 7/3/4 6/2/4
f 5/1/5 1/4/5 2/3/5
f 5/1/5 2/3/5 6/2/5
f 4/1/6 8/4/6 7/3/6
f 4/1/6 7/3/6 3/2/6
f 9/5/7 12/8/7 11/7/7
f 9/5/7 11/7/7 10/6/7
f 14/5/8 15/8/8 16/7/8
f 14/5/8 16/7/8 13/6/8
f 13/5/9 16/8/9 12/7/9
f 13/5/9 12/7/9 9/6/9
f 10/5/10 11/8/10 15/7/10
f 10/5/10 15/7/10 14/6/10
f 13/5/11 9/8/11 10/7/11
f 13/5/11 10/7/11 14/6/11
f 12/5/12 16/8/12 15/7/12
f 12/5/12 15/7/12 11/6/12
f 17/9/13 20/12/13 19/11/13
f 17/9/13 19/11/13 18/10/13
f 22/9/14 23/12/14 24/11/14
f 22/9/14 24/11/14 21/10/14
f 21/9/15 24/12/15 20/11/15
f 21/9/15 20/11/15 17/10/15
f 18/9/16 19/12/16 23/11/16
f 18/9/16 23/11/16 22/10/16
f 21/9/17 17/12/17 18/11/17
f 21/9/17 18/11/17 22/10/17
f 20/9/18 24/12/18 23/11/18
f 20/9/18 23/11/18 19/10/18
f 25/13/19 28/16/19 27/15/19
f 25/13/19 27/15/19 26/14/19
f 30/13/20 31/16/20 32/15/20
f 30/13/20 32/15/20 29/14/20
f 29/13/21 32/16/21 28/15/21
f 29/13/21 28/15/21 25/14/21
f 26/13/22 27/16/22 31/15/22
f 26/13/22 31/15/22 30/14/22
f 29/13/23 25/16/23 26/15/23
f 29/13/23 26/15/23 30/14/23
f 28/13/24 32/16/24 31/15/24
f 28/13/24 31/15/24 27/14/24
f 33/17/25 36/20/25 35/19/25
f 33/17/25 35/19/25 34/18/25
f 38/17/26 39/20/26 40/19/26
f 38/17/26 40/19/26 37/18/26
f 37/17/27 40/20/27 36/19/27
f 37/17/27 36/19/27 33/18/27
f 34/17/28 35/20/28 39/19/28
f 34/17/28 39/19/28 38/18/28
f 37/17/29 33/20/29 34/19/29
f 37/17/29 34/19/29 38/18/29
f 36/17/30 40/20/30 39/19/30
f 36/17/30 39/19/30 35/18/30
f 41/21/31 44/24/31 43/23/31
f 41/21/31 43/23/31 42/22/31
f 46/21/32 47/24/32 48/23/32
f 46/21/32 48/23/32 45/22/32
f 45/21/33 48/24/33 44/23/33
f 45/21/33 44/23/33 41/22/33
f 42/21/34 43/24/34 47/23/34
f 42/21/34 47/23/34 46/22/34
f 45/21/35 41/24/35 42/23/35
f 45/21/35 42/23/35 46/22/35
f 44/21/36 48/24/36 47/23/36
f 44/21/36 47/23/36 43/22/36
f 49/25/37 52/28/37 51/27/37
f 49/25/37 51/27/37 50/26/37
f 54/25/38 55/28/38 56/27/38
f 54/25/38 56/27/38 53/26/38
f 53/25/39 56/28/39 52/27/39
f 53/25/39 52/27/39 49/26/39
f 50/25/40 51/28/40 55/27/40
f 50/25/40 55/27/40 54/26/40
f 53/25/41 49/28/41 50/27/41
f 53/25/41 50/27/41 54/26/41
f 52/25/42 56/28/42 55/27/42
f 52/25/42 55/27/42 51/26/42
f 57/29/43 60/32/43 59/31/43
f 57/29/43 59/31/43 58/30/43
f 62/29/44 63/32/44 64/31/44
f 62/29/44 64/31/44 61/30/44
f 61/29/45 64/32/45 60/31/45
f 61/29/45 60/31/45 57/30/45
f 58/29/46 59/32/46 63/31/46
f 58/29/46 63/31/46 62/30/46
f 61/29/47 57/32/47 58/31/47
f 61/29/47 58/31/47 62/30/47
f 60/29/48 64/32/48 63/31/48
f 60/29/48 63/31/48 59/30/48
f 65/33/49 68/36/49 67/35/49
f 65/33/49 67/35/49 66/34/49
f 70/33/50 71/36/50 72/35/50
f 70/33/50 72/35/50 69/34/50
f 69/33/51 72/36/51 68/35/51
f 69/33/51 68/35/51 65/34/51
f 66/33/52 67/36/52 71/35/52
f 66/33/52 71/35/52 70/34/52
f 69/33/53 65/36/53 66/35/53
f 69/33/53 66/35/53 70/34/53
f 68/33/54 72/36/54 71/35/54
f 68/33/54 71/35/54 67/34/54
f 73/37/55 76/40/55 75/39/55
f 73/37/55 75/39/55 74/38/55
f 78/37/56 79/40/56 80/39/56
f 78/37/56 80/39/56 77/38/56
f 77/37/57 80/40/57 76/39/57
f 77/37/57 76/39/57 73/38/57
f 74/37/58 75/40/58 79/39/58
f 74/37/58 79/39/58 78/38/58
f 77/37/59 73/40/59 74/39/59
f 77/37/59 74/39/59 78/38/59
f 76/37/60 80/40/60 79/39/60
f 76/37/60 79/39/60 75/38/60
f 81/41/61 84/44/61 83/43/61
f 81/41/61 83/43/61 82/42/61
f 86/41/62 87/44/62 88/43/62
f 86/41/62 88/43/62 85/42/62
f 85/41/63 88/44/63 84/43/63
f 85/41/63 84/43/63 81/42/63
f 82/41/64 83/44/64 87/43/64
f 82/41/64 87/43/64 86/42/64
f 85/41/65 81/44/65 82/43/65
f 85/41/65 82/43/65 86/42/65
f 84/41/66 88/44/66 87/43/66
f 84/41/66 87/43/66 83/42/66
f 89/45/67 92/48/67 91/47/67
f 89/45/67 91/47/67 90/46/67
f 94/45/68 95/48/68 96/47/68
f 94/45/68 96/47/68 93/46/68
f 93/45/69 96/48/69 92/47/69
f 93/45/69 92/47/69 89/46/69
f 90/45/70 91/48/70 95/47/70
f 90/45/70 95/47/70 94/46/70
f 93/45/71 89/48/71 90/47/71
f 93/45/71 90/47/71 94/46/71
f 92/45/72 96/48/72 95/47/72
f 92/45/72 95/47/72 91/46/72
f 97/49/73 100/52/73 99/51/73
f 97/49/73 99/51/73 98/50/73
f 102/49/74 103/52/74 104/51/74
f 102/49/74 104/51/74 101/50/74
f 101/49/75 104/52/75 100/51/75
f 101/49/75 100/51/75 97/50/75
f 98/49/76 99/52/76 103/51/76
f 98/49/76 103/51/76 102/50/76
f 101/49/77 97/52/77 98/51/77
f 101/49/77 98/51/77 102/50/77
f 100/49/78 104/52/78 103/51/78
f 100/49/78 103/51/78 99/50/78
f 105/53/79 108/56/79 107/55/79
f 105/53/79 107/55/79 106/54/79
f 110/53/80 111/56/80 112/55/80
f 110/53/80 112/55/80 109/54/80
f 109/53/81 112/56/81 108/55/81
f 109/53/81 108/55/81 105/54/81
f 106/53/82 107/56/82 111/55/82
f 106/53/82 111/55/82 110/54/82
f 109/53/83 105/56/83 106/55/83
f 109/53/83 106/55/83 110/54/83
f 108/53/84 112/56/84 111/55/84
f 108/53/84 111/55/84 107/54/84
f 113/57/85 116/60/85 115/59/85
f 113/57/85 115/59/85 114/58/85
f 118/57/86 119/60/86 120/59/86
f 118/57/86 120/59/86 117/58/86
f 117/57/87 120/60/87 116/59/87
f 117/57/87 116/59/87 113/58/87
f 114/57/88 115/60/88 119/59/88
f 114/57/88 119/59/88 118/58/88
f 117/57/89 113/60/89 114/59/89
f 117/57/89 114/59/89 118/58/89
f 116/57/90 120/60/90 119/59/90
f 116/57/90 119/59/90 115/58/90
f 121/61/91 124/64/91 123/63/91
f 121/61/91 123/63/91 122/62/91
f 126/61/92 127/64/92 128/63/92
f 126/61/92 128/63/92 125/62/92
f 125/61/93 128/64/93 124/63/93
f 125/61/93 124/63/93 121/62/93
f 122/61/94 123/64/94 127/63/94
f 122/61/94 127/63/94 126/62/94
f 125/61/95 121/64/95 122/63/95
f 125/61/95 122/63/95 126/62/95
f 124/61/96 128/64/96 127/63/96
f 124/61/96 127/63/96 123/62/96
f 129/65/97 132/68/97 131/67/97
f 129/65/97 131/67/97 130/66/97
f 134/65/98 135/68/98 136/67/98
f 134/65/98 136/67/98 133/66/98
f 133/65/99 136/68/99 132/67/99
f 133/65/99 132/67/99 129/66/99
f 130/65/100 131/68/100 135/67/100
f 130/65/100 135/67/100 134/66/100
f 133/65/101 129/68/101 130/67/101
f 133/65/101 130/67/101 134/66/101
f 132/65/102 136/68/102 135/67/102
f 132/65/102 135/67/102 131/66/102
f 137/69/103 140/72/103 139/71/103
f 137/69/103 139/71/103 138/70/103
f 142/69/104 143/72/104 144/71/104
f 142/69/104 144/71/104 141/70/104
f 141/69/105 144/72/105 140/71/105
f 141/69/105 140/71/105 137/70/105
f 138/69/106 139/72/106 143/71/106
f 138/69/106 143/71/106 142/70/106
f 141/69/107 137/72/107 138/71/107
f 141/69/107 138/71/107 142/70/107
f 140/69/108 144/72/108 143/71/108
f 140/69/108 143/71/108 139/70/108
f 145/73/109 148/76/109 147/75/109
f 145/73/109 147/75/109 146/74/109
f 150/73/110 151/76/110 152/75/110
f 150/73/110 152/75/110 149/74/110
f 149/73/111 152/76/111 148/75/111
f 149/73/111 148/75/111 145/74/111
f 146/73/112 147/76/112 151/75/112
f 146/73/112 151/75/112 150/74/112
f 149/73/113 145/76/113 146/75/113
f 149/73/113 146/75/113 150/74/113
f 148/73/114 152/76/114 151/75/114
f 148/73/114 151/75/114 147/74/114
f 153/77/115 156/80/115 155/79/115
f 153/77/115 155/79/115 154/78/115
f 158/77/116 159/80/116 160/79/116
f 158/77/116 160/79/116 157/78/116
f 157/77/117 160/80/117 156/79/117
f 157/77/117 156/79/117 153/78/117
f 154/77/118 155/80/118 159/79/118
f 154/77/118 159/79/118 158/78/118
f 157/77/119 153/80/119 154/79/119
f 157/77/119 154/79/119 158/78/119
f 156/77/120 160/80/120 159/79/120
f 156/77/120 159/79/120 155/78/120
f 161/81/121 164/84/121 163/83/121
f 161/81/121 163/83/121 162/82/121
f 166/81/122 167/84/122 168/83/122
f 166/81/122 168/83/122 165/82/122
f 165/81/123 168/84/123 164/83/123
f 165/81/123 164/83/123 161/82/123
f 162/81/124 163/84/124 167/83/124
f 162/81/124 167/83/124 166/82/124
f 165/81/125 161/84/125 162/83/125
f 165/81/125 162/83/125 166/82/125
f 164/81/126 168/84/126 167/83/126
f 164/81/126 167/83/126 163/82/126
f 169/85/127 172/88/127 171/87/127
f 169/85/127 171/87/127 170/86/127
f 174/85/128 175/88/128 176/87/128
f 174/85/128 176/87/128 173/86/128
f 173/85/129 176/88/129 172/87/129
f 173/85/129 172/87/129 169/86/129
f 170/85/130 171/88/130 175/87/130
f 170/85/130 175/87/130 174/86/130
f 173/85/131 169/88/131 170/87/131
f 173/85/131 170/87/131 174/86/131
f 172/85/132 176/88/132 175/87/132
f 172/85/132 175/87/132 171/86/132
f 177/89/133 180/92/133 179/91/133
f 177/89/133 179/91/133 178/90/133
f 182/89/134 183/92/134 184/91/134
f 182/89/134 184/91/134 181/90/134
f 181/89/135 184/92/135 180/91/135
f 181/89/135 180/91/135 177/90/135
f 178/89/136 179/92/136 183/91/136
f 178/89/136 183/91/136 182/90/136
f 181/89/137 177/92/137 178/91/137
f 181/89/137 178/91/137 182/90/137
f 180/89/138 184/92/138 183/91/138
f 180/89/138 183/91/138 179/90/138
f 185/93/139 188/96/139 187/95/139
f 185/93/139 187/95/139 186/94/139
f 190/93/140 191/96/140 192/95/140
f 190/93/140 192/95/140 189/94/140
f 189/93/141 192/96/141 188/95/141
f 189/93/141 188/95/141 185/94/141
f 186/93/142 187/96/142 191/95/142
f 186/93/142 191/95/142 190/94/142
f 189/93/143 185/96/143 186/95/143
f 189/93/143 186/95/143 190/94/143
f 188/93/144 192/96/144 191/95/144
f 188/93/144 191/95/144 187/94/144
f 193/97/145 196/100/145 195/99/145
f 193/97/145 195/99/145 194/98/145
f 198/97/146 199/100/146 200/99/146
f 198/97/146 200/99/146 197/98/146
f 197/97/147 200/100/147 196/99/147
f 197/97/147 196/99/147 193/98/147
f 194/97/148 195/100/148 199/99/148
f 194/97/148 199/99/148 198/98/148
f 197/97/149 193/100/149 194/99/149
f 197/97/149 194/99/149 198/98/149
f 196/97/150 200/100/150 199/99/150
f 196/97/150 199/99/150 195/98/150
f 201/101/151 204/104/151 203/103/151
f 201/101/151 203/103/151 202/102/151
f 206/101/152 207/104/152 208/103/152
f 206/101/152 208/103/152 205/102/152
f 205/101/153 208/104/153 204/103/153
f 205/101/153 204/103/153 201/102/153
f 202/101/154 203/104/154 207/103/154
f 202/101/154 207/103/154 206/102/154
f 205/101/155 201/104/155 202/103/155
f 205/101/155 202/103/155 206/102/155
f 204/101/156 208/104/156 207/103/156
f 204/101/156 207/103/156 203/102/156
f 209/105/157 212/108/157 211/107/157
f 209/105/157 211/107/157 210/106/157
f 214/105/158 215/108/158 216/107/158
f 214/105/158 216/107/158 213/106/158
f 213/105/159 216/108/159 212/107/159
f 213/105/159 212/107/159 209/106/159
f 210/105/160 211/108/160 215/107/160
f 210/105/160 215/107/160 214/106/160
f 213/105/161 209/108/161 210/107/161
f 213/105/161 210/107/161 214/106/161
f 212/105/162 216/108/162 215/107/162
f 212/105/162 215/107/162 211/106/162
f 217/109/163 220/112/163 219/111/163
f 217/109/163 219/111/163 218/110/163
f 222/109/164 223/112/164 224/111/164
f 222/109/164 224/111/164 221/110/164
f 221/109/165 224/112/165 220/111/165
f 221/109/165 220/111/165 217/110/165
f 218/109/166 219/112/166 223/111/166
f 218/109/166 223/111/166 222/110/166
f 221/109/167 217/112/167 218/111/167
f 221/109/167 218/111/167 222/110/167
f 220/109/168 224/112/168 223/111/168
f 220/109/168 223/111/168 219/110/168
f 225/113/169 228/116/169 227/115/169
f 225/113/169 227/115/169 226/114/169
f 230/113/170 231/116/170 232/115/170
f 230/113/170 232/115/170 229/114/170
f 229/113/171 232/116/171 228/115/171
f 229/113/171 228/115/171 225/114/171
f 226/113/172 227/116/172 231/115/172
f 226/113/172 231/115/172 230/114/172
f 229/113/173 225/116/173 226/115/173
f 229/113/173 226/115/173 230/114/173
f 228/113/174 232/116/174 231/115/174
f 228/113/174 231/115/174 227/114/174
f 233/117/175 236/120/175 235/119/175
f 233/117/175 235/119/175 234/118/175
f 238/117/176 239/120/176 240/119/176
f 238/117/176 240/119/176 237/118/176
f 237/117/177 240/120/177 236/119/177
f 237/117/177 236/119/177 233/118/177
f 234/117/178 235/120/178 239/119/178
f 234/117/178 239/119/178 238/118/178
f 237/117/179 233/120/179 234/119/179
f 237/117/179 234/119/179 238/118/179
f 236/117/180 240/120/180 239/119/180
f 236/117/180 239/119/180 235/118/180
f 241/121/181 244/124/181 243/123/181
f 241/121/181 243/123/181 242/122/181
f 246/121/182 247/124/182 248/123/182
f 246/121/182 248/123/182 245/122/182
f 245/121/183 248/124/183 244/123/183
f 245/121/183 244/123/183 241/122/183
f 242/121/184 243/124/184 247/123/184
f 242/121/184 247/123/184 246/122/184
f 245/121/185 241/124/185 242/123/185
f 245/121/185 242/123/185 246/122/185
f 244/121/186 248/124/186 247/123/186
f 244/121/186 247/123/186 243/122/186
f 249/125/187 252/128/187 251/127/187
f 249/125/187 251/127/187 250/126/187
f 254/125/188 255/128/188 256/127/188
f 254/125/188 256/127/188 253/126/188
f 253/125/189 256/128/189 252/127/189
f 253/125/189 252/127/189 249/126/189
f 250/125/190 251/128/190 255/127/190
f 250/125/190 255/127/190 254/126/190
f 253/125/191 249/128/191 250/127/191
f 253/125/191 250/127/191 254/126/191
f 252/125/192 256/128/192 255/127/192
f 252/125/192 255/127/192 251/126/192
f 257/129/193 260/132/193 259/131/193
f 257/129/193 259/131/193 258/130/193
f 262/129/194 263/132/194 264/131/194
f 262/129/194 264/131/194 261/130/194
f 261/129/195 264/132/195 260/131/195
f 261/129/195 260/131/195 257/130/195
f 258/129/196 259/132/196 263/131/196
f 258/129/196 263/131/196 262/130/196
f 261/129/197 257/132/197 258/131/197
f 261/129/197 258/131/197 262/130/197
f 260/129/198 264/132/198 263/131/198
f 260/129/198 263/131/198 259/130/198
f 265/133/199 268/136/199 267/135/199
f 265/133/199 267/135/199 266/134/199
f 270/133/200 271/136/200 272/135/200
f 270/133/200 272/135/200 269/134/200
f 269/133/201 272/136/201 268/135/201
f 269/133/201 268/135/201 265/134/201
f 266/133/202 267/136/202 271/135/202
f 266/133/202 271/135/202 270/134/202
f 269/133/203 265/136/203 266/135/203
f 269/133/203 266/135/203 270/134/203
f 268/133/204 272/136/204 271/135/204
f 268/133/204 271/135/204 267/134/204
f 273/137/205 276/140/205 275/139/205
f 273/137/205 275/139/205 274/138/205
f 278/137/206 279/140/206 280/139/206
f 278/137/206 280/139/206 277/138/206
f 277/137/207 280/140/207 276/139/207
f 277/137/207 276/139/207 273/138/207
f 274/137/208 275/140/208 279/139/208
f 274/137/208 279/139/208 278/138/208
f 277/137/209 273/140/209 274/139/209
f 277/137/209 274/139/209 278/138/209
f 276/137/210 280/140/210 279/139/210
f 276/137/210 279/139/210 275/138/210
f 281/141/211 282/142/211 284/143/211
f 281/141/211 284/143/211 283/144/211
f 283/141/212 284/142/212 286/143/212
f 283/141/212 286/143/212 285/144/212
f 285/141/213 286/142/213 288/143/213
f 285/141/213 288/143/213 287/144/213
f 287/141/214 288/142/214 290/143/214
f 287/141/214 290/143/214 289/144/214
f 289/141/215 290/142/215 292/143/215
f 289/141/215 292/143/215 291/144/215
f 291/141/216 292/142/216 282/143/216
f 291/141/216 282/143/216 281/144/216
f 293/141/217 283/142/217 281/143/217
f 293/141/217 285/142/217 283/143/217
f 293/141/217 287/142/217 285/143/217
f 293/141/217 289/142/217 287/143/217
f 293/141/217 291/142/217 289/143/217
f 293/141/217 281/142/217 291/143/217
f 294/141/218 282/142/218 284/143/218
f 294/141/218 284/142/218 286/143/218
f 294/141/218 286/142/218 288/143/218
f 294/141/218 288/142/218 290/143/218
f 294/141/218 290/142/218 292/143/218
f 294/141/218 292/142/218 282/143/218
f 295/145/219 298/148/219 297/147/219
f 295/145/219 297/147/219 296/146/219
f 300/145/220 301/148/220 302/147/220
f 300/145/220 302/147/220 299/146/220
f 299/145/221 302/148/221 298/147/221
f 299/145/221 298/147/221 295/146/221
f 296/145/222 297/148/222 301/147/222
f 296/145/222 301/147/222 300/146/222
f 299/145/223 295/148/223 296/147/223
f 299/145/223 296/147/223 300/146/223
f 298/145/224 302/148/224 301/147/224
f 298/145/224 301/147/224 297/146/224
f 303/149/225 306/152/225 305/151/225
f 303/149/225 305/151/225 304/150/225
f 308/149/226 309/152/226 310/151/226
f 308/149/226 310/151/226 307/150/226
f 307/149/227 310/152/227 306/151/227
f 307/149/227 306/151/227 303/150/227
f 304/149/228 305/152/228 309/151/228
f 304/149/228 309/151/228 308/150/228
f 307/149/229 303/152/229 304/151/229
f 307/149/229 304/151/229 308/150/229
f 306/149/230 310/152/230 309/151/230
f 306/149/230 309/151/230 305/150/230
f 311/153/231 313/154/231 314/155/231
f 311/153/231 314/155/231 312/156/231
f 313/153/232 315/154/232 316/155/232
f 313/153/232 316/155/232 314/156/232
f 315/153/233 317/154/233 318/155/233
f 315/153/233 318/155/233 316/156/233
f 317/153/234 319/154/234 320/155/234
f 317/153/234 320/155/234 318/156/234
f 319/153/235 321/154/235 322/155/235
f 319/153/235 322/155/235 320/156/235
f 321/153/236 311/154/236 312/155/236
f 321/153/236 312/155/236 322/156/236
f 323/153/237 313/154/237 311/155/237
f 323/153/237 315/154/237 313/155/237
f 323/153/237 317/154/237 315/155/237
f 323/153/237 319/154/237 317/155/237
f 323/153/237 321/154/237 319/155/237
f 323/153/237 311/154/237 321/155/237
f 324/153/238 312/154/238 314/155/238
f 324/153/238 314/154/238 316/155/238
f 324/153/238 316/154/238 318/155/238
f 324/153/238 318/154/238 320/155/238
f 324/153/238 320/154/238 322/155/238
f 324/153/238 322/154/238 312/155/238
f 325/157/239 327/158/239 328/159/239
f 325/157/239 328/159/239 326/160/239
f 327/157/240 329/158/240 330/159/240
f 327/157/240 330/159/240 328/160/240
f 329/157/241 331/158/241 332/159/241
f 329/157/241 332/159/241 330/160/241
f 331/157/242 333/158/242 334/159/242
f 331/157/242 334/159/242 332/160/242
f 333/157/243 335/158/243 336/159/243
f 333/157/243 336/159/243 334/160/243
f 335/157/244 325/158/244 326/159/244
f 335/157/244 326/159/244 336/160/244
f 337/157/245 327/158/245 325/159/245
f 337/157/245 329/158/245 327/159/245
f 337/157/245 331/158/245 329/159/245
f 337/157/245 333/158/245 331/159/245
f 337/157/245 335/158/245 333/159/245
f 337/157/245 325/158/245 335/159/245
f 338/157/246 326/158/246 328/159/246
f 338/157/246 328/158/246 330/159/246
f 338/157/246 330/158/246 332/159/246
f 338/157/246 332/158/246 334/159/246
f 338/157/246 334/158/246 336/159/246
f 338/157/246 336/158/246 326/159/246
f 339/161/247 341/162/247 342/163/247
f 339/161/247 342/163/247 340/164/247
f 341/161/248 343/162/248 344/163/248
f 341/161/248 344/163/248 342/164/248
f 343/161/249 345/162/249 346/163/249
f 343/161/249 346/163/249 344/164/249
f 345/161/250 347/162/250 348/163/250
f 345/161/250 348/163/250 346/164/250
f 347/161/251 349/162/251 350/163/251
f 347/161/251 350/163/251 348/164/251
f 349/161/252 339/162/252 340/163/252
f 349/161/252 340/163/252 350/164/252
f 351/161/253 341/162/253 339/163/253
f 351/161/253 343/162/253 341/163/253
f 351/161/253 345/162/253 343/163/253
f 351/161/253 347/162/253 345/163/253
f 351/161/253 349/162/253 347/163/253
f 351/161/253 339/162/253 349/163/253
f 352/161/254 340/162/254 342/163/254
f 352/161/254 342/162/254 344/163/254
f 352/161/254 344/162/254 346/163/254
f 352/161/254 346/162/254 348/163/254
f 352/161/254 348/162/254 350/163/254
f 352/161/254 350/162/254 340/163/254

g Iron
usemtl Iron
s 1
f 353/165/255 356/168/255 355/167/255
f 353/165/255 355/167/255 354/166/255
f 358/165/256 359/168/256 360/167/256
f 358/165/256 360/167/256 357/166/256
f 357/165/257 360/168/257 356/167/257
f 357/165/257 356/167/257 353/166/257
f 354/165/258 355/168/258 359/167/258
f 354/165/258 359/167/258 358/166/258
f 357/165/259 353/168/259 354/167/259
f 357/165/259 354/167/259 358/166/259
f 356/165/260 360/168/260 359/167/260
f 356/165/260 359/167/260 355/166/260
f 361/169/261 364/172/261 363/171/261
f 361/169/261 363/171/261 362/170/261
f 366/169/262 367/172/262 368/171/262
f 366/169/262 368/171/262 365/170/262
f 365/169/263 368/172/263 364/171/263
f 365/169/263 364/171/263 361/170/263
f 362/169/264 363/172/264 367/171/264
f 362/169/264 367/171/264 366/170/264
f 365/169/265 361/172/265 362/171/265
f 365/169/265 362/171/265 366/170/265
f 364/169/266 368/172/266 367/171/266
f 364/169/266 367/171/266 363/170/266
f 369/173/267 372/176/267 371/175/267
f 369/173/267 371/175/267 370/174/267
f 374/173/268 375/176/268 376/175/268
f 374/173/268 376/175/268 373/174/268
f 373/173/269 376/176/269 372/175/269
f 373/173/269 372/175/269 369/174/269
f 370/173/270 371/176/270 375/175/270
f 370/173/270 375/175/270 374/174/270
f 373/173/271 369/176/271 370/175/271
f 373/173/271 370/175/271 374/174/271
f 372/173/272 376/176/272 375/175/272
f 372/173/272 375/175/272 371/174/272
f 377/177/273 380/180/273 379/179/273
f 377/177/273 379/179/273 378/178/273
f 382/177/274 383/180/274 384/179/274
f 382/177/274 384/179/274 381/178/274
f 381/177/275 384/180/275 380/179/275
f 381/177/275 380/179/275 377/178/275
f 378/177/276 379/180/276 383/179/276
f 378/177/276 383/179/276 382/178/276
f 381/177/277 377/180/277 378/179/277
f 381/177/277 378/179/277 382/178/277
f 380/177/278 384/180/278 383/179/278
f 380/177/278 383/179/278 379/178/278
f 385/181/279 388/184/279 387/183/279
f 385/181/279 387/183/279 386/182/279
f 390/181/280 391/184/280 392/183/280
f 390/181/280 392/183/280 389/182/280
f 389/181/281 392/184/281 388/183/281
f 389/181/281 388/183/281 385/182/281
f 386/181/282 387/184/282 391/183/282
f 386/181/282 391/183/282 390/182/282
f 389/181/283 385/184/283 386/183/283
f 389/181/283 386/183/283 390/182/283
f 388/181/284 392/184/284 391/183/284
f 388/181/284 391/183/284 387/182/284
f 393/185/285 396/188/285 395/187/285
f 393/185/285 395/187/285 394/186/285
f 398/185/286 399/188/286 400/187/286
f 398/185/286 400/187/286 397/186/286
f 397/185/287 400/188/287 396/187/287
f 397/185/287 396/187/287 393/186/287
f 394/185/288 395/188/288 399/187/288
f 394/185/288 399/187/288 398/186/288
f 397/185/289 393/188/289 394/187/289
f 397/185/289 394/187/289 398/186/289
f 396/185/290 400/188/290 399/187/290
f 396/185/290 399/187/290 395/186/290
f 401/189/291 404/192/291 403/191/291
f 401/189/291 403/191/291 402/190/291
f 406/189/292 407/192/292 408/191/292
f 406/189/292 408/191/292 405/190/292
f 405/189/293 408/192/293 404/191/293
f 405/189/293 404/191/293 401/190/293
f 402/189/294 403/192/294 407/191/294
f 402/189/294 407/191/294 406/190/294
f 405/189/295 401/192/295 402/191/295
f 405/189/295 402/191/295 406/190/295
f 404/189/296 408/192/296 407/191/296
f 404/189/296 407/191/296 403/190/296
f 409/193/297 412/196/297 411/195/297
f 409/193/297 411/195/297 410/194/297
f 414/193/298 415/196/298 416/195/298
f 414/193/298 416/195/298 413/194/298
f 413/193/299 416/196/299 412/195/299
f 413/193/299 412/195/299 409/194/299
f 410/193/300 411/196/300 415/195/300
f 410/193/300 415/195/300 414/194/300
f 413/193/301 409/196/301 410/195/301
f 413/193/301 410/195/301 414/194/301
f 412/193/302 416/196/302 415/195/302
f 412/193/302 415/195/302 411/194/302
f 417/197/303 420/200/303 419/199/303
f 417/197/303 419/199/303 418/198/303
f 422/197/304 423/200/304 424/199/304
f 422/197/304 424/199/304 421/198/304
f 421/197/305 424/200/305 420/199/305
f 421/197/305 420/199/305 417/198/305
f 418/197/306 419/200/306 423/199/306
f 418/197/306 423/199/306 422/198/306
f 421/197/307 417/200/307 418/199/307
f 421/197/307 418/199/307 422/198/307
f 420/197/308 424/200/308 423/199/308
f 420/197/308 423/199/308 419/198/308
f 425/201/309 428/204/309 427/203/309
f 425/201/309 427/203/309 426/202/309
f 430/201/310 431/204/310 432/203/310
f 430/201/310 432/203/310 429/202/310
f 429/201/311 432/204/311 428/203/311
f 429/201/311 428/203/311 425/202/311
f 426/201/312 427/204/312 431/203/312
f 426/201/312 431/203/312 430/202/312
f 429/201/313 425/204/313 426/203/313
f 429/201/313 426/203/313 430/202/313
f 428/201/314 432/204/314 431/203/314
f 428/201/314 431/203/314 427/202/314
f 433/205/315 436/208/315 435/207/315
f 433/205/315 435/207/315 434/206/315
f 438/205/316 439/208/316 440/207/316
f 438/205/316 440/207/316 437/206/316
f 437/205/317 440/208/317 436/207/317
f 437/205/317 436/207/317 433/206/317
f 434/205/318 435/208/318 439/207/318
f 434/205/318 439/207/318 438/206/318
f 437/205/319 433/208/319 434/207/319
f 437/205/319 434/207/319 438/206/319
f 436/205/320 440/208/320 439/207/320
f 436/205/320 439/207/320 435/206/320
f 441/209/321 444/212/321 443/211/321
f 441/209/321 443/211/321 442/210/321
f 446/209/322 447/212/322 448/211/322
f 446/209/322 448/211/322 445/210/322
f 445/209/323 448/212/323 444/211/323
f 445/209/323 444/211/323 441/210/323
f 442/209/324 443/212/324 447/211/324
f 442/209/324 447/211/324 446/210/324
f 445/209/325 441/212/325 442/211/325
f 445/209/325 442/211/325 446/210/325
f 444/209/326 448/212/326 447/211/326
f 444/209/326 447/211/326 443/210/326
f 449/213/327 452/216/327 451/215/327
f 449/213/327 451/215/327 450/214/327
f 454/213/328 455/216/328 456/215/328
f 454/213/328 456/215/328 453/214/328
f 453/213/329 456/216/329 452/215/329
f 453/213/329 452/215/329 449/214/329
f 450/213/330 451/216/330 455/215/330
f 450/213/330 455/215/330 454/214/330
f 453/213/331 449/216/331 450/215/331
f 453/213/331 450/215/331 454/214/331
f 452/213/332 456/216/332 455/215/332
f 452/213/332 455/215/332 451/214/332
f 457/217/333 460/220/333 459/219/333
f 457/217/333 459/219/333 458/218/333
f 462/217/334 463/220/334 464/219/334
f 462/217/334 464/219/334 461/218/334
f 461/217/335 464/220/335 460/219/335
f 461/217/335 460/219/335 457/218/335
f 458/217/336 459/220/336 463/219/336
f 458/217/336 463/219/336 462/218/336
f 461/217/337 457/220/337 458/219/337
f 461/217/337 458/219/337 462/218/337
f 460/217/338 464/220/338 463/219/338
f 460/217/338 463/219/338 459/218/338
f 465/221/339 468/224/339 467/223/339
f 465/221/339 467/223/339 466/222/339
f 470/221/340 471/224/340 472/223/340
f 470/221/340 472/223/340 469/222/340
f 469/221/341 472/224/341 468/223/341
f 469/221/341 468/223/341 465/222/341
f 466/221/342 467/224/342 471/223/342
f 466/221/342 471/223/342 470/222/342
f 469/221/343 465/224/343 466/223/343
f 469/221/343 466/223/343 470/222/343
f 468/221/344 472/224/344 471/223/344
f 468/221/344 471/223/344 467/222/344
f 473/225/345 476/228/345 475/227/345
f 473/225/345 475/227/345 474/226/345
f 478/225/346 479/228/346 480/227/346
f 478/225/346 480/227/346 477/226/346
f 477/225/347 480/228/347 476/227/347
f 477/225/347 476/227/347 473/226/347
f 474/225/348 475/228/348 479/227/348
f 474/225/348 479/227/348 478/226/348
f 477/225/349 473/228/349 474/227/349
f 477/225/349 474/227/349 478/226/349
f 476/225/350 480/228/350 479/227/350
f 476/225/350 479/227/350 475/226/350
f 481/229/351 483/230/351 484/231/351
f 481/229/351 484/231/351 482/232/351
f 483/229/352 485/230/352 486/231/352
f 483/229/352 486/231/352 484/232/352
f 485/229/353 487/230/353 488/231/353
f 485/229/353 488/231/353 486/232/353
f 487/229/354 489/230/354 490/231/354
f 487/229/354 490/231/354 488/232/354
f 489/229/355 491/230/355 492/231/355
f 489/229/355 492/231/355 490/232/355
f 491/229/356 481/230/356 482/231/356
f 491/229/356 482/231/356 492/232/356
f 493/229/357 483/230/357 481/231/357
f 493/229/357 485/230/357 483/231/357
f 493/229/357 487/230/357 485/231/357
f 493/229/357 489/230/357 487/231/357
f 493/229/357 491/230/357 489/231/357
f 493/229/357 481/230/357 491/231/357
f 494/229/358 482/230/358 484/231/358
f 494/229/358 484/230/358 486/231/358
f 494/229/358 486/230/358 488/231/358
f 494/229/358 488/230/358 490/231/358
f 494/229/358 490/230/358 492/231/358
f 494/229/358 492/230/358 482/231/358
f 495/233/359 498/236/359 497/235/359
f 495/233/359 497/235/359 496/234/359
f 500/233/360 501/236/360 502/235/360
f 500/233/360 502/235/360 499/234/360
f 499/233/361 502/236/361 498/235/361
f 499/233/361 498/235/361 495/234/361
f 496/233/362 497/236/362 501/235/362
f 496/233/362 501/235/362 500/234/362
f 499/233/363 495/236/363 496/235/363
f 499/233/363 496/235/363 500/234/363
f 498/233/364 502/236/364 501/235/364
f 498/233/364 501/235/364 497/234/364
f 503/237/365 506/240/365 505/239/365
f 503/237/365 505/239/365 504/238/365
f 508/237/366 509/240/366 510/239/366
f 508/237/366 510/239/366 507/238/366
f 507/237/367 510/240/367 506/239/367
f 507/237/367 506/239/367 503/238/367
f 504/237/368 505/240/368 509/239/368
f 504/237/368 509/239/368 508/238/368
f 507/237/369 503/240/369 504/239/369
f 507/237/369 504/239/369 508/238/369
f 506/237/370 510/240/370 509/239/370
f 506/237/370 509/239/370 505/238/370
f 511/241/371 514/244/371 513/243/371
f 511/241/371 513/243/371 512/242/371
f 516/241/372 517/244/372 518/243/372
f 516/241/372 518/243/372 515/242/372
f 515/241/373 518/244/373 514/243/373
f 515/241/373 514/243/373 511/242/373
f 512/241/374 513/244/374 517/243/374
f 512/241/374 517/243/374 516/242/374
f 515/241/375 511/244/375 512/243/375
f 515/241/375 512/243/375 516/242/375
f 514/241/376 518/244/376 517/243/376
f 514/241/376 517/243/376 513/242/376
f 519/245/377 522/248/377 521/247/377
f 519/245/377 521/247/377 520/246/377
f 524/245/378 525/248/378 526/247/378
f 524/245/378 526/247/378 523/246/378
f 523/245/379 526/248/379 522/247/379
f 523/245/379 522/247/379 519/246/379
f 520/245/380 521/248/380 525/247/380
f 520/245/380 525/247/380 524/246/380
f 523/245/381 519/248/381 520/247/381
f 523/245/381 520/247/381 524/246/381
f 522/245/382 526/248/382 525/247/382
f 522/245/382 525/247/382 521/246/382
f 527/249/383 530/252/383 529/251/383
f 527/249/383 529/251/383 528/250/383
f 532/249/384 533/252/384 534/251/384
f 532/249/384 534/251/384 531/250/384
f 531/249/385 534/252/385 530/251/385
f 531/249/385 530/251/385 527/250/385
f 528/249/386 529/252/386 533/251/386
f 528/249/386 533/251/386 532/250/386
f 531/249/387 527/252/387 528/251/387
f 531/249/387 528/251/387 532/250/387
f 530/249/388 534/252/388 533/251/388
f 530/249/388 533/251/388 529/250/388
f 535/253/389 538/256/389 537/255/389
f 535/253/389 537/255/389 536/254/389
f 540/253/390 541/256/390 542/255/390
f 540/253/390 542/255/390 539/254/390
f 539/253/391 542/256/391 538/255/391
f 539/253/391 538/255/391 535/254/391
f 536/253/392 537/256/392 541/255/392
f 536/253/392 541/255/392 540/254/392
f 539/253/393 535/256/393 536/255/393
f 539/253/393 536/255/393 540/254/393
f 538/253/394 542/256/394 541/255/394
f 538/253/394 541/255/394 537/254/394
f 543/257/395 546/260/395 545/259/395
f 543/257/395 545/259/395 544/258/395
f 548/257/396 549/260/396 550/259/396
f 548/257/396 550/259/396 547/258/396
f 547/257/397 550/260/397 546/259/397
f 547/257/397 546/259/397 543/258/397
f 544/257/398 545/260/398 549/259/398
f 544/257/398 549/259/398 548/258/398
f 547/257/399 543/260/399 544/259/399
f 547/257/399 544/259/399 548/258/399
f 546/257/400 550/260/400 549/259/400
f 546/257/400 549/259/400 545/258/400
f 551/261/401 554/264/401 553/263/401
f 551/261/401 553/263/401 552/262/401
f 556/261/402 557/264/402 558/263/402
f 556/261/402 558/263/402 555/262/402
f 555/261/403 558/264/403 554/263/403
f 555/261/403 554/263/403 551/262/403
f 552/261/404 553/264/404 557/263/404
f 552/261/404 557/263/404 556/262/404
f 555/261/405 551/264/405 552/263/405
f 555/261/405 552/263/405 556/262/405
f 554/261/406 558/264/406 557/263/406
f 554/261/406 557/263/406 553/262/406
f 559/265/407 562/268/407 561/267/407
f 559/265/407 561/267/407 560/266/407
f 564/265/408 565/268/408 566/267/408
f 564/265/408 566/267/408 563/266/408
f 563/265/409 566/268/409 562/267/409
f 563/265/409 562/267/409 559/266/409
f 560/265/410 561/268/410 565/267/410
f 560/265/410 565/267/410 564/266/410
f 563/265/411 559/268/411 560/267/411
f 563/265/411 560/267/411 564/266/411
f 562/265/412 566/268/412 565/267/412
f 562/265/412 565/267/412 561/266/412
f 567/269/413 570/272/413 569/271/413
f 567/269/413 569/271/413 568/270/413
f 572/269/414 573/272/414 574/271/414
f 572/269/414 574/271/414 571/270/414
f 571/269/415 574/272/415 570/271/415
f 571/269/415 570/271/415 567/270/415
f 568/269/416 569/272/416 573/271/416
f 568/269/416 573/271/416 572/270/416
f 571/269/417 567/272/417 568/271/417
f 571/269/417 568/271/417 572/270/417
f 570/269/418 574/272/418 573/271/418
f 570/269/418 573/271/418 569/270/418
f 575/273/419 578/276/419 577/275/419
f 575/273/419 577/275/419 576/274/419
f 580/273/420 581/276/420 582/275/420
f 580/273/420 582/275/420 579/274/420
f 579/273/421 582/276/421 578/275/421
f 579/273/421 578/275/421 575/274/421
f 576/273/422 577/276/422 581/275/422
f 576/273/422 581/275/422 580/274/422
f 579/273/423 575/276/423 576/275/423
f 579/273/423 576/275/423 580/274/423
f 578/273/424 582/276/424 581/275/424
f 578/273/424 581/275/424 577/274/424
f 583/277/425 586/280/425 585/279/425
f 583/277/425 585/279/425 584/278/425
f 588/277/426 589/280/426 590/279/426
f 588/277/426 590/279/426 587/278/426
f 587/277/427 590/280/427 586/279/427
f 587/277/427 586/279/427 583/278/427
f 584/277/428 585/280/428 589/279/428
f 584/277/428 589/279/428 588/278/428
f 587/277/429 583/280/429 584/279/429
f 587/277/429 584/279/429 588/278/429
f 586/277/430 590/280/430 589/279/430
f 586/277/430 589/279/430 585/278/430
f 591/281/431 594/284/431 593/283/431
f 591/281/431 593/283/431 592/282/431
f 596/281/432 597/284/432 598/283/432
f 596/281/432 598/283/432 595/282/432
f 595/281/433 598/284/433 594/283/433
f 595/281/433 594/283/433 591/282/433
f 592/281/434 593/284/434 597/283/434
f 592/281/434 597/283/434 596/282/434
f 595/281/435 591/284/435 592/283/435
f 595/281/435 592/283/435 596/282/435
f 594/281/436 598/284/436 597/283/436
f 594/281/436 597/283/436 593/282/436
f 599/285/437 602/288/437 601/287/437
f 599/285/437 601/287/437 600/286/437
f 604/285/438 605/288/438 606/287/438
f 604/285/438 606/287/438 603/286/438
f 603/285/439 606/288/439 602/287/439
f 603/285/439 602/287/439 599/286/439
f 600/285/440 601/288/440 605/287/440
f 600/285/440 605/287/440 604/286/440
f 603/285/441 599/288/441 600/287/441
f 603/285/441 600/287/441 604/286/441
f 602/285/442 606/288/442 605/287/442
f 602/285/442 605/287/442 601/286/442
f 607/289/443 610/292/443 609/291/443
f 607/289/443 609/291/443 608/290/443
f 612/289/444 613/292/444 614/291/444
f 612/289/444 614/291/444 611/290/444
f 611/289/445 614/292/445 610/291/445
f 611/289/445 610/291/445 607/290/445
f 608/289/446 609/292/446 613/291/446
f 608/289/446 613/291/446 612/290/446
f 611/289/447 607/292/447 608/291/447
f 611/289/447 608/291/447 612/290/447
f 610/289/448 614/292/448 613/291/448
f 610/289/448 613/291/448 609/290/448
f 615/293/449 618/296/449 617/295/449
f 615/293/449 617/295/449 616/294/449
f 620/293/450 621/296/450 622/295/450
f 620/293/450 622/295/450 619/294/450
f 619/293/451 622/296/451 618/295/451
f 619/293/451 618/295/451 615/294/451
f 616/293/452 617/296/452 621/295/452
f 616/293/452 621/295/452 620/294/452
f 619/293/453 615/296/453 616/295/453
f 619/293/453 616/295/453 620/294/453
f 618/293/454 622/296/454 621/295/454
f 618/293/454 621/295/454 617/294/454
f 623/297/455 626/300/455 625/299/455
f 623/297/455 625/299/455 624/298/455
f 628/297/456 629/300/456 630/299/456
f 628/297/456 630/299/456 627/298/456
f 627/297/457 630/300/457 626/299/457
f 627/297/457 626/299/457 623/298/457
f 624/297/458 625/300/458 629/299/458
f 624/297/458 629/299/458 628/298/458
f 627/297/459 623/300/459 624/299/459
f 627/297/459 624/299/459 628/298/459
f 626/297/460 630/300/460 629/299/460
f 626/297/460 629/299/460 625/298/460

g Stone
usemtl Stone
s 1
f 631/301/461 633/302/461 634/303/461
f 631/301/461 634/303/461 632/304/461
f 633/301/462 635/302/462 636/303/462
f 633/301/462 636/303/462 634/304/462
f 635/301/463 637/302/463 638/303/463
f 635/301/463 638/303/463 636/304/463
f 637/301/464 639/302/464 640/303/464
f 637/301/464 640/303/464 638/304/464
f 639/301/465 641/302/465 642/303/465
f 639/301/465 642/303/465 640/304/465
f 641/301/466 643/302/466 644/303/466
f 641/301/466 644/303/466 642/304/466
f 643/301/467 645/302/467 646/303/467
f 643/301/467 646/303/467 644/304/467
f 645/301/468 647/302/468 648/303/468
f 645/301/468 648/303/468 646/304/468
f 647/301/469 649/302/469 650/303/469
f 647/301/469 650/303/469 648/304/469
f 649/301/470 631/302/470 632/303/470
f 649/301/470 632/303/470 650/304/470
f 651/301/471 633/302/471 631/303/471
f 651/301/471 635/302/471 633/303/471
f 651/301/471 637/302/471 635/303/471
f 651/301/471 639/302/471 637/303/471
f 651/301/471 641/302/471 639/303/471
f 651/301/471 643/302/471 641/303/471
f 651/301/471 645/302/471 643/303/471
f 651/301/471 647/302/471 645/303/471
f 651/301/471 649/302/471 647/303/471
f 651/301/471 631/302/471 649/303/471
f 652/301/472 632/302/472 634/303/472
f 652/301/472 634/302/472 636/303/472
f 652/301/472 636/302/472 638/303/472
f 652/301/472 638/302/472 640/303/472
f 652/301/472 640/302/472 642/303/472
f 652/301/472 642/302/472 644/303/472
f 652/301/472 644/302/472 646/303/472
f 652/301/472 646/302/472 648/303/472
f 652/301/472 648/302/472 650/303/472
f 652/301/472 650/302/472 632/303/472
f 653/305/473 656/308/473 655/307/473
f 653/305/473 655/307/473 654/306/473
f 658/305/474 659/308/474 660/307/474
f 658/305/474 660/307/474 657/306/474
f 657/305/475 660/308/475 656/307/475
f 657/305/475 656/307/475 653/306/475
f 654/305/476 655/308/476 659/307/476
f 654/305/476 659/307/476 658/306/476
f 657/305/477 653/308/477 654/307/477
f 657/305/477 654/307/477 658/306/477
f 656/305/478 660/308/478 659/307/478
f 656/305/478 659/307/478 655/306/478
f 661/309/479 664/312/479 663/311/479
f 661/309/479 663/311/479 662/310/479
f 666/309/480 667/312/480 668/311/480
f 666/309/480 668/311/480 665/310/480
f 665/309/481 668/312/481 664/311/481
f 665/309/481 664/311/481 661/310/481
f 662/309/482 663/312/482 667/311/482
f 662/309/482 667/311/482 666/310/482
f 665/309/483 661/312/483 662/311/483
f 665/309/483 662/311/483 666/310/483
f 664/309/484 668/312/484 667/311/484
f 664/309/484 667/311/484 663/310/484

